<svg width="376" height="506" viewBox="0 0 376 506" fill="none" xmlns="http://www.w3.org/2000/svg">
<path d="M18.7343 231.54C16.5143 231.54 -2.79566 238.99 0.344338 258.89C1.16434 264.83 5.70434 267.62 7.34434 267.39C8.98434 267.16 17.1243 242.62 20.6143 243.39C24.1043 244.16 18.7343 231.54 18.7343 231.54Z" fill="#F8CDBA"/>
<path d="M177.134 377.23C172.684 388.35 72.3841 378.67 69.2441 382.78C66.1041 386.89 51.1442 486.56 49.2142 488C47.2842 489.44 32.7942 488 30.6242 486.55C28.4542 485.1 29.9042 368.04 32.7942 364.18C35.6842 360.32 79.8641 331.36 133.924 333.05C187.984 334.74 177.134 377.23 177.134 377.23Z" fill="#1F161E"/>
<path d="M74.894 218.14C91.814 206.59 153.434 178.14 160.654 181.62C185.654 193.79 200.454 325.04 197.144 336.18C193.834 347.32 110.424 315.7 110.424 315.7C110.424 315.7 108.914 247.7 110.124 239.22C103.194 241.03 72.7839 247.05 19.184 245.22C17.4987 242.643 16.5049 239.676 16.2983 236.604C16.0916 233.533 16.679 230.459 18.004 227.68C25.514 224.56 65.004 220.05 74.894 218.14Z" fill="#D07B7B"/>
<path d="M45.1142 482C45.8442 483.47 50.5542 491.9 50.0242 494C49.0242 497.74 30.2242 505.6 28.9442 505.17C27.6642 504.74 26.2542 503.17 26.7642 502.31C27.2742 501.45 33.7642 496.31 34.4442 495.17C35.1242 494.03 34.6542 489.7 33.1642 488" fill="#1F161E"/>
<path d="M71.6239 355.41C71.4639 357.04 70.9339 366.68 69.3839 368.15C66.5839 370.8 46.4539 367.37 45.5939 366.33C44.7339 365.29 44.3739 363.23 45.2839 362.75C46.1939 362.27 54.4239 361.46 55.5939 360.81C56.7639 360.16 58.6939 356.3 58.3339 354.07" fill="#332832"/>
<path d="M137.844 236.29C131.154 237.37 111.104 240.17 111.104 240.17" stroke="#1F161E" stroke-width="0.55" stroke-miterlimit="10" stroke-linecap="round"/>
<path d="M166.624 381.47C190.254 381.47 197.624 355.88 197.624 336.38C197.624 326.12 95.7243 242.66 87.2943 242.66C62.4143 242.66 54.9043 349.39 54.9043 353.93C54.9043 358.47 72.2743 358.62 74.1543 357.84C75.4043 354.4 90.8943 308.08 90.8943 308.08C92.9143 311.68 125.774 381.47 166.624 381.47Z" fill="#6C86A1"/>
<path d="M128.33 192.476C128.775 195.58 148.977 194.388 148.517 191.057L145.577 170.344L125.403 171.765L128.33 192.476Z" fill="#F8CDBA"/>
<path d="M147.988 186.679C147.809 184.283 142.369 176.645 138.779 178.524C143.198 176.07 144.98 169.475 146.763 170.546L147.988 186.679Z" fill="black"/>
<path d="M131.976 179.653C147.539 177.615 158.527 163.527 156.518 148.186C154.509 132.845 140.264 122.061 124.701 124.099C109.138 126.137 98.15 140.226 100.159 155.566C102.168 170.907 116.413 181.691 131.976 179.653Z" fill="#F8CDBA"/>
<path d="M113.367 112.481C98.9795 114.365 91.1791 124.514 92.6852 136.016C93.9376 145.58 96.9881 150.684 99.9128 151.694C100.434 142.181 103.647 137.389 106.531 135.131C109.194 136.662 113.948 140.592 119.687 141.245C125.426 141.898 139.857 139.736 152.649 146.646C156.007 142.695 159.241 137.708 158.548 132.419C157.856 127.13 154.634 120.803 140.282 118.786C130.819 117.455 128.618 110.483 113.367 112.481Z" fill="#1F161E"/>
<path d="M103.575 162.899C106.243 162.55 108.288 161.365 108.142 160.254C107.996 159.142 105.716 158.524 103.048 158.873C100.38 159.223 98.3348 160.407 98.4804 161.519C98.6259 162.63 100.907 163.248 103.575 162.899Z" fill="#FA9E9F"/>
<path d="M133.768 158.945C136.214 158.625 138.078 157.464 137.933 156.353C137.787 155.241 135.686 154.599 133.241 154.92C130.795 155.24 128.931 156.401 129.076 157.512C129.222 158.624 131.322 159.266 133.768 158.945Z" fill="#FA9E9F"/>
<path d="M113.898 154.177C113.298 155.563 110.09 161.471 114.505 163.105" stroke="#1F161E" stroke-miterlimit="10" stroke-linecap="round"/>
<path d="M125.563 168.209C126.995 168.022 128.947 165.607 129.867 163.551" stroke="#1F161E" stroke-miterlimit="10" stroke-linecap="round"/>
<path d="M155.314 157.762C158.872 157.296 161.378 154.034 160.912 150.477C160.446 146.92 157.185 144.414 153.628 144.879C150.07 145.345 147.564 148.607 148.03 152.164C148.496 155.721 151.757 158.227 155.314 157.762Z" fill="#F8CDBA"/>
<path d="M299.688 363.322H261.508C259.97 363.322 258.486 362.754 257.34 361.729C256.195 360.703 255.467 359.291 255.298 357.762L250.478 314.472C250.381 313.599 250.469 312.715 250.737 311.878C251.005 311.041 251.446 310.269 252.032 309.615C252.618 308.96 253.335 308.436 254.138 308.077C254.94 307.718 255.809 307.532 256.688 307.532H304.308C305.184 307.531 306.051 307.715 306.852 308.072C307.652 308.428 308.369 308.949 308.955 309.601C309.541 310.253 309.983 311.021 310.252 311.855C310.521 312.689 310.612 313.571 310.518 314.442L305.908 357.732C305.742 359.267 305.016 360.686 303.868 361.718C302.72 362.75 301.231 363.321 299.688 363.322V363.322Z" fill="#969696"/>
<path d="M318.707 298.122H242.507C240.27 298.122 238.457 299.935 238.457 302.172V309.552C238.457 311.789 240.27 313.602 242.507 313.602H318.707C320.944 313.602 322.757 311.789 322.757 309.552V302.172C322.757 299.935 320.944 298.122 318.707 298.122Z" fill="#D8D8D8"/>
<path d="M191.931 68.5449C234.825 54.4867 271.377 109.447 281.222 124.053C324.275 188.213 287.937 244.165 268.856 250.584C235.594 261.787 199.486 211.389 189.268 195.431C171.828 168.394 177.25 130.546 175.316 119.009C173.382 107.473 180.493 72.2942 191.931 68.5449Z" fill="#AB8DE5"/>
<path d="M302.832 0.413428C329.879 -3.1954 345.551 17.6811 350.395 29.6095C358.234 49.0735 375.127 59.5302 375.127 84.4001C375.127 142.437 337.259 188.938 320.256 188.938C282.776 188.938 268.864 152.169 268.864 136.669C268.864 110.357 276.324 78.6245 275.436 70.7043C273.565 54.435 263.117 5.70096 302.832 0.413428Z" fill="#88D3C8"/>
<path d="M214.635 112.287C224.06 123.779 256.162 178.707 266 297" stroke="#FBDC8E" stroke-width="4" stroke-linecap="round" stroke-linejoin="round"/>
<path d="M246.821 107.412C245.798 111.021 237.308 132.711 230.459 140.076" stroke="#FBDC8E" stroke-width="4" stroke-linecap="round" stroke-linejoin="round"/>
<path d="M202.094 176.322C208.602 180.352 227.318 184.279 246.343 184.382" stroke="#FBDC8E" stroke-width="4" stroke-linecap="round" stroke-linejoin="round"/>
<path d="M270.125 201.672C268.365 203.728 263.284 209.718 255.547 212.624" stroke="#FBDC8E" stroke-width="4" stroke-linecap="round" stroke-linejoin="round"/>
<path d="M314.319 71.3255C325.456 141.076 303.451 267.735 302.5 297.5" stroke="#FBDC8E" stroke-width="4" stroke-linecap="round" stroke-linejoin="round"/>
<path d="M341.262 77.2046C338.329 81.4051 326.359 91.3737 317.267 94.4723" stroke="#FBDC8E" stroke-width="4" stroke-linecap="round" stroke-linejoin="round"/>
<path d="M288.936 129.481C294.786 131.995 305.781 136.41 316.371 136.41" stroke="#FBDC8E" stroke-width="4" stroke-linecap="round" stroke-linejoin="round"/>
</svg>
