<svg width="1059" height="488" viewBox="0 0 1059 488" fill="none" xmlns="http://www.w3.org/2000/svg">
<path d="M32.4555 480.977C28.9526 481.064 8.12783 482.623 4.55487 479.716C-1.92549 474.461 -0.174038 430.342 1.82261 428.223C3.81927 426.104 8.11032 424.72 9.40639 426.559C10.7025 428.398 14.6607 445.825 16.4122 448.12C18.1636 450.414 26.9209 453.497 31.6148 452.113" fill="#1F161E"/>
<path d="M448.565 375.294C443.749 369.602 278.903 247.438 246.413 248.069C213.924 248.699 118.855 445.983 120.659 452.621C122.463 459.259 172.782 448.365 179.963 442.322C187.144 436.28 237.323 383.176 249.793 356.326C254.697 363.437 295.086 410.236 307.153 417.784C319.221 425.333 448.565 375.294 448.565 375.294Z" fill="#1F161E"/>
<path d="M27.1836 482.15C29.9159 484.322 505.89 493.079 545.227 482.15C584.565 471.221 594.951 472.307 594.408 449.363C593.865 426.419 517.344 367.938 507.518 367.938C492.456 367.938 337.488 380.198 214.589 425.543C165.548 433.565 30.6865 448.698 30.6865 448.698C28.4797 456.719 24.5214 471.501 27.1836 482.15Z" fill="#6C86A1"/>
<path d="M620.014 154.314C645.673 165.681 677.234 312.575 672.943 317.391C668.652 322.208 632.274 338.777 632.274 338.777C631.574 374.541 601.274 460.152 592.184 463.883C528.291 445.702 488.988 389.043 488.988 373.525C488.988 358.007 440.333 369.9 436.585 365.574C434.838 363.78 432.852 362.236 430.683 360.985C430.683 360.985 456.954 338.216 477.499 323.434C476.781 317.111 471.281 198.626 478.375 187.486C492.491 165.401 588.033 140.145 620.014 154.314Z" fill="#EBA0A0"/>
<path d="M632.503 338.742C625.497 342.052 561.867 369.48 534.019 375.294" stroke="#1F161E" stroke-width="0.55" stroke-miterlimit="10" stroke-linecap="round"/>
<path d="M592.621 243.988C595.931 250.994 616.301 291.365 613.814 295.516C611.327 299.667 495.346 353.699 485.152 356.992" stroke="#1F161E" stroke-width="0.55" stroke-miterlimit="10" stroke-linecap="round"/>
<path d="M496.432 233.602C495.784 248.56 496.204 321.7 498.691 348.707" stroke="#1F161E" stroke-width="0.55" stroke-miterlimit="10" stroke-linecap="round"/>
<path d="M529.087 170.677C530.612 176.517 570.554 170.246 568.953 163.976L558.841 125L519 131.701L529.087 170.677Z" fill="#F8CDBA"/>
<path d="M566 155C565.149 150.419 552.756 136.784 546 141.121C554.287 135.51 556.474 122.445 560.241 124.153L566 155Z" fill="black"/>
<path d="M431.36 296.198L422.629 300.878L414.437 285.596L423.169 280.916L431.36 296.198Z" fill="#9AAAB4"/>
<path d="M398.334 289.705C414.457 296.278 432.856 288.537 439.43 272.415C446.004 256.292 438.263 237.893 422.14 231.319C406.017 224.745 387.618 232.486 381.044 248.609C374.471 264.732 382.212 283.131 398.334 289.705Z" fill="#8899A6"/>
<path d="M402.452 281.926C413.648 286.491 426.425 281.116 430.991 269.919C435.556 258.723 430.18 245.946 418.984 241.381C407.787 236.815 395.01 242.191 390.445 253.387C385.88 264.584 391.256 277.361 402.452 281.926Z" fill="#BBDDF5"/>
<path d="M418.602 302.973C417.959 301.446 418.677 299.687 420.204 299.045L430.817 294.579C432.344 293.937 434.103 294.654 434.746 296.181L459.392 354.763C461.268 359.221 459.175 364.355 454.717 366.231V366.231C450.259 368.106 445.124 366.013 443.249 361.555L418.602 302.973Z" fill="#66757F"/>
<path d="M897.479 370.565V368.814L893.276 363.56L883.643 351.737L873.309 339.232C873.309 339.232 863.361 332.349 860.804 331.158C851.486 326.849 842.309 323.557 831.345 323.557C824.602 323.557 799.398 324.572 799.346 328.811C799.346 335.099 834.637 358.901 860.524 370.46C871.803 370.565 897.479 370.565 897.479 370.565Z" fill="#1F161E"/>
<path d="M892.137 370.565C856.214 342.98 782.899 192.18 801.692 136.309C841.73 156.713 885.656 227.069 906.376 286.478C907.473 290.343 908.35 294.267 909.003 298.231L917.41 336.762L919.512 370.565H892.137Z" fill="#6C86A1"/>
<path d="M916.658 370.565C904.538 360.722 900.667 331.578 900.562 320.702C900.369 300.402 903.487 285.445 920.844 263.114C938.201 240.783 933.524 203.722 956.643 178.747C979.762 153.771 994.965 146.818 1022.32 146.818C1049.68 146.818 1058.35 191.164 1058.28 202.321C1057.96 247.298 1029.61 253.656 1012.34 275.146C999.781 290.734 998.801 303.485 995 310.771C974.578 349.986 958.044 364.803 945.784 370.565" fill="#88D3C8"/>
<path d="M923.277 367.308C923.628 290.542 1004.53 175.244 1021.81 157.957" stroke="white" stroke-width="0.4" stroke-linecap="round" stroke-linejoin="round"/>
<path d="M927.708 332.471C918.758 322.716 910.614 295.06 911.84 287.88" stroke="white" stroke-width="0.4" stroke-linecap="round" stroke-linejoin="round"/>
<path d="M904.782 363.997C892.102 341.474 831.94 231.903 809.434 151.179" stroke="white" stroke-width="0.4" stroke-linecap="round" stroke-linejoin="round"/>
<path d="M945.783 370.565H983.439L951.913 488H867.616L836.598 370.565H945.783Z" fill="#C1B3AC"/>
<path d="M811.587 331.21C829.96 332.471 853.079 333.312 869.472 344.434" stroke="white" stroke-width="0.4" stroke-linecap="round" stroke-linejoin="round"/>
<path d="M533.983 145.126C563.667 138.071 582.093 108.633 575.139 79.3735C568.185 50.1141 538.484 32.1136 508.8 39.1684C479.117 46.2232 460.691 75.6617 467.645 104.921C474.599 134.181 504.3 152.181 533.983 145.126Z" fill="#F8CDBA"/>
<path d="M484.561 18.9716C457.119 25.4936 444.068 46.6784 449.282 68.6151C453.617 86.8567 460.537 96.1158 466.394 97.4833C465.497 78.9853 470.751 69.0764 475.876 64.1341C481.33 66.5621 491.31 73.2094 502.536 73.3233C513.762 73.4371 541.233 66.3699 567.349 77.1689C573.051 68.8587 578.305 58.5686 575.908 48.4815C573.51 38.3945 566.014 26.8046 537.862 25.7776C519.298 25.0968 513.648 12.0585 484.561 18.9716Z" fill="#1F161E"/>
<path d="M475.718 118.415C480.807 117.205 484.523 114.506 484.02 112.386C483.516 110.266 478.982 109.527 473.893 110.737C468.805 111.946 465.088 114.645 465.592 116.766C466.096 118.886 470.63 119.624 475.718 118.415Z" fill="#FA9E9F"/>
<path d="M533.305 104.729C537.969 103.62 541.342 101.002 540.838 98.8822C540.335 96.7619 536.145 95.9418 531.48 97.0504C526.816 98.159 523.443 100.777 523.947 102.897C524.451 105.017 528.64 105.837 533.305 104.729Z" fill="#FA9E9F"/>
<path d="M493.932 99.4846C493.05 102.285 488.03 114.349 496.893 116.627" stroke="#1F161E" stroke-miterlimit="10" stroke-linecap="round"/>
<path d="M519.295 124.282C522.025 123.633 525.316 118.573 526.683 114.414" stroke="#1F161E" stroke-miterlimit="10" stroke-linecap="round"/>
<path d="M574.728 98.1281C581.513 96.5156 585.706 89.7082 584.093 82.9234C582.481 76.1386 575.673 71.9456 568.888 73.5582C562.104 75.1707 557.911 81.9781 559.523 88.7629C561.136 95.5477 567.943 99.7406 574.728 98.1281Z" fill="#F8CDBA"/>
<path d="M485.153 356.992C486.204 359.181 493.525 380.321 494.295 384.91C495.066 389.498 465.116 395.558 454.678 395.051C444.239 394.543 431.506 384.857 431.506 373.403C431.506 361.948 447.181 353.839 485.153 356.992Z" fill="#F8CDBA"/>
</svg>
