<svg id="e18ym802lncc1" xmlns="http://www.w3.org/2000/svg" xmlns:xlink="http://www.w3.org/1999/xlink" viewBox="0 0 655 460" shape-rendering="geometricPrecision" text-rendering="geometricPrecision"><style><![CDATA[#e18ym802lncc2_to {animation: e18ym802lncc2_to__to 4500ms linear infinite normal forwards}@keyframes e18ym802lncc2_to__to { 0% {offset-distance: 0%} 46.666667% {offset-distance: 0%} 53.333333% {offset-distance: 100%} 100% {offset-distance: 100%} }#e18ym802lncc2 {animation: e18ym802lncc2_c_o 4500ms linear infinite normal forwards}@keyframes e18ym802lncc2_c_o { 0% {opacity: 1} 46.666667% {opacity: 1} 88.888889% {opacity: 0} 100% {opacity: 0} }#e18ym802lncc3_to {animation: e18ym802lncc3_to__to 4500ms linear infinite normal forwards}@keyframes e18ym802lncc3_to__to { 0% {offset-distance: 0%} 40% {offset-distance: 0%} 48.888889% {offset-distance: 100%} 100% {offset-distance: 100%} }#e18ym802lncc3 {animation: e18ym802lncc3_c_o 4500ms linear infinite normal forwards}@keyframes e18ym802lncc3_c_o { 0% {opacity: 1} 40% {opacity: 1} 88.888889% {opacity: 0} 100% {opacity: 0} }#e18ym802lncc4_to {animation: e18ym802lncc4_to__to 4500ms linear infinite normal forwards}@keyframes e18ym802lncc4_to__to { 0% {offset-distance: 0%} 20% {offset-distance: 0%} 28.888889% {offset-distance: 100%} 100% {offset-distance: 100%} }#e18ym802lncc4 {animation: e18ym802lncc4_c_o 4500ms linear infinite normal forwards}@keyframes e18ym802lncc4_c_o { 0% {opacity: 1} 20% {opacity: 1} 73.333333% {opacity: 0} 100% {opacity: 0} }#e18ym802lncc5_to {animation: e18ym802lncc5_to__to 4500ms linear infinite normal forwards}@keyframes e18ym802lncc5_to__to { 0% {offset-distance: 0%} 15.555556% {offset-distance: 0%} 24.444444% {offset-distance: 100%} 100% {offset-distance: 100%} }#e18ym802lncc5_ts {animation: e18ym802lncc5_ts__ts 4500ms linear infinite normal forwards}@keyframes e18ym802lncc5_ts__ts { 0% {transform: scale(0.500000,1)} 13.333333% {transform: scale(0.500000,1)} 17.777778% {transform: scale(1,1)} 100% {transform: scale(1,1)} }#e18ym802lncc5 {animation: e18ym802lncc5_c_o 4500ms linear infinite normal forwards}@keyframes e18ym802lncc5_c_o { 0% {opacity: 1} 15.555556% {opacity: 1} 64.444444% {opacity: 0} 100% {opacity: 0} }#e18ym802lncc6_to {animation: e18ym802lncc6_to__to 4500ms linear infinite normal forwards}@keyframes e18ym802lncc6_to__to { 0% {offset-distance: 0%} 8.888889% {offset-distance: 0%} 17.777778% {offset-distance: 100%} 100% {offset-distance: 100%} }#e18ym802lncc6 {animation: e18ym802lncc6_c_o 4500ms linear infinite normal forwards}@keyframes e18ym802lncc6_c_o { 0% {opacity: 1} 8.888889% {opacity: 1} 55.555556% {opacity: 0} 100% {opacity: 0} }#e18ym802lncc39_tr {animation: e18ym802lncc39_tr__tr 4500ms linear infinite normal forwards}@keyframes e18ym802lncc39_tr__tr { 0% {transform: translate(377.900000px,267.500000px) rotate(0deg)} 5.555556% {transform: translate(377.900000px,267.500000px) rotate(0deg)} 7.111111% {transform: translate(377.900000px,267.500000px) rotate(-9.650981deg)} 8.888889% {transform: translate(377.900000px,267.500000px) rotate(3.962911deg)} 11.333333% {transform: translate(377.900000px,267.500000px) rotate(-32.578705deg)} 14.222222% {transform: translate(377.900000px,267.500000px) rotate(4.626699deg)} 15.555556% {transform: translate(377.900000px,267.500000px) rotate(0deg)} 17.111111% {transform: translate(377.900000px,267.500000px) rotate(-9.650981deg)} 18.888889% {transform: translate(377.900000px,267.500000px) rotate(3.962911deg)} 21.333333% {transform: translate(377.900000px,267.500000px) rotate(-32.578705deg)} 24.222222% {transform: translate(377.900000px,267.500000px) rotate(4.626699deg)} 26.666667% {transform: translate(377.900000px,267.500000px) rotate(3.962911deg)} 29.111111% {transform: translate(377.900000px,267.500000px) rotate(-32.578705deg)} 40% {transform: translate(377.900000px,267.500000px) rotate(0deg)} 41.555556% {transform: translate(377.900000px,267.500000px) rotate(-9.650981deg)} 43.333333% {transform: translate(377.900000px,267.500000px) rotate(3.962911deg)} 45.777778% {transform: translate(377.900000px,267.500000px) rotate(-32.578705deg)} 48.666667% {transform: translate(377.900000px,267.500000px) rotate(4.626699deg)} 50% {transform: translate(377.900000px,267.500000px) rotate(0deg)} 51.555556% {transform: translate(377.900000px,267.500000px) rotate(-9.650981deg)} 53.333333% {transform: translate(377.900000px,267.500000px) rotate(3.962911deg)} 55.777778% {transform: translate(377.900000px,267.500000px) rotate(-32.578705deg)} 58.666667% {transform: translate(377.900000px,267.500000px) rotate(4.626699deg)} 61.111111% {transform: translate(377.900000px,267.500000px) rotate(3.962911deg)} 64% {transform: translate(377.900000px,267.500000px) rotate(0deg)} 100% {transform: translate(377.900000px,267.500000px) rotate(0deg)} }#e18ym802lncc52_tr {animation: e18ym802lncc52_tr__tr 4500ms linear infinite normal forwards}@keyframes e18ym802lncc52_tr__tr { 0% {transform: translate(487.202552px,372.370988px) rotate(0deg)} 4.444444% {transform: translate(487.202552px,372.370988px) rotate(-30.644494deg)} 6.666667% {transform: translate(487.202552px,372.370988px) rotate(-2.352461deg)} 8.888889% {transform: translate(487.202552px,372.370988px) rotate(-23.326985deg)} 13.333333% {transform: translate(487.202552px,372.370988px) rotate(6.374453deg)} 28.888889% {transform: translate(487.202552px,372.370988px) rotate(0deg)} 33.333333% {transform: translate(487.202552px,372.370988px) rotate(-30.644494deg)} 35.555556% {transform: translate(487.202552px,372.370988px) rotate(-2.352461deg)} 37.777778% {transform: translate(487.202552px,372.370988px) rotate(-23.326985deg)} 42.222222% {transform: translate(487.202552px,372.370988px) rotate(6.374453deg)} 64.444444% {transform: translate(487.202552px,372.370988px) rotate(0deg)} 68.888889% {transform: translate(487.202552px,372.370988px) rotate(-30.644494deg)} 71.111111% {transform: translate(487.202552px,372.370988px) rotate(-2.352461deg)} 73.333333% {transform: translate(487.202552px,372.370988px) rotate(-23.326985deg)} 77.777778% {transform: translate(487.202552px,372.370988px) rotate(0deg)} 100% {transform: translate(487.202552px,372.370988px) rotate(0deg)} }]]></style><g id="e18ym802lncc2_to" style="offset-path:path('M455.399998,245.494351C428.813645,218.170670,486.049639,178.725289,509.088016,153.617505');offset-rotate:0deg"><path id="e18ym802lncc2" d="M518.762000,231L518.762000,222.469000L521.750000,222.469000C522.785000,222.469000,523.570000,222.668000,524.105000,223.066000C524.641000,223.461000,524.908000,224.041000,524.908000,224.807000C524.908000,225.225000,524.801000,225.594000,524.586000,225.914000C524.371000,226.230000,524.072000,226.463000,523.689000,226.611000C524.127000,226.721000,524.471000,226.941000,524.721000,227.273000C524.975000,227.605000,525.102000,228.012000,525.102000,228.492000C525.102000,229.312000,524.840000,229.934000,524.316000,230.355000C523.793000,230.777000,523.047000,230.992000,522.078000,231L518.762000,231ZM520.520000,227.285000L520.520000,229.588000L522.025000,229.588000C522.439000,229.588000,522.762000,229.490000,522.992000,229.295000C523.227000,229.096000,523.344000,228.822000,523.344000,228.475000C523.344000,227.693000,522.939000,227.297000,522.131000,227.285000L520.520000,227.285000ZM520.520000,226.043000L521.820000,226.043000C522.707000,226.027000,523.150000,225.674000,523.150000,224.982000C523.150000,224.596000,523.037000,224.318000,522.811000,224.150000C522.588000,223.979000,522.234000,223.893000,521.750000,223.893000L520.520000,223.893000L520.520000,226.043000ZM532.883000,222.469000L532.883000,228.088000C532.883000,229.021000,532.590000,229.760000,532.004000,230.303000C531.422000,230.846000,530.625000,231.117000,529.613000,231.117000C528.617000,231.117000,527.826000,230.854000,527.240000,230.326000C526.654000,229.799000,526.355000,229.074000,526.344000,228.152000L526.344000,222.469000L528.102000,222.469000L528.102000,228.100000C528.102000,228.658000,528.234000,229.066000,528.500000,229.324000C528.770000,229.578000,529.141000,229.705000,529.613000,229.705000C530.602000,229.705000,531.104000,229.186000,531.119000,228.146000L531.119000,222.469000L532.883000,222.469000ZM538.748000,228.762000C538.748000,228.430000,538.631000,228.176000,538.396000,228C538.162000,227.820000,537.740000,227.633000,537.131000,227.438000C536.521000,227.238000,536.039000,227.043000,535.684000,226.852000C534.715000,226.328000,534.230000,225.623000,534.230000,224.736000C534.230000,224.275000,534.359000,223.865000,534.617000,223.506000C534.879000,223.143000,535.252000,222.859000,535.736000,222.656000C536.225000,222.453000,536.771000,222.352000,537.377000,222.352000C537.986000,222.352000,538.529000,222.463000,539.006000,222.686000C539.482000,222.904000,539.852000,223.215000,540.113000,223.617000C540.379000,224.020000,540.512000,224.477000,540.512000,224.988000L538.754000,224.988000C538.754000,224.598000,538.631000,224.295000,538.385000,224.080000C538.139000,223.861000,537.793000,223.752000,537.348000,223.752000C536.918000,223.752000,536.584000,223.844000,536.346000,224.027000C536.107000,224.207000,535.988000,224.445000,535.988000,224.742000C535.988000,225.020000,536.127000,225.252000,536.404000,225.439000C536.686000,225.627000,537.098000,225.803000,537.641000,225.967000C538.641000,226.268000,539.369000,226.641000,539.826000,227.086000C540.283000,227.531000,540.512000,228.086000,540.512000,228.750000C540.512000,229.488000,540.232000,230.068000,539.674000,230.490000C539.115000,230.908000,538.363000,231.117000,537.418000,231.117000C536.762000,231.117000,536.164000,230.998000,535.625000,230.760000C535.086000,230.518000,534.674000,230.188000,534.389000,229.770000C534.107000,229.352000,533.967000,228.867000,533.967000,228.316000L535.730000,228.316000C535.730000,229.258000,536.293000,229.729000,537.418000,229.729000C537.836000,229.729000,538.162000,229.645000,538.396000,229.477000C538.631000,229.305000,538.748000,229.066000,538.748000,228.762000ZM544.648000,226.312000L546.424000,222.469000L548.346000,222.469000L545.545000,227.906000L545.545000,231L543.758000,231L543.758000,227.906000L540.957000,222.469000L542.885000,222.469000L544.648000,226.312000Z" transform="translate(-533.554016,-226.734505)" fill="rgb(196,196,196)" stroke="none" stroke-width="1"/></g><g id="e18ym802lncc3_to" style="offset-path:path('M455.399998,245.494351C418.312351,233.694322,439.240030,176.442399,472.779700,153.617505');offset-rotate:0deg"><path id="e18ym802lncc3" d="M520.520000,167.588000L524.252000,167.588000L524.252000,169L518.762000,169L518.762000,160.469000L520.520000,160.469000L520.520000,167.588000ZM531.898000,164.928000C531.898000,165.768000,531.750000,166.504000,531.453000,167.137000C531.156000,167.770000,530.730000,168.258000,530.176000,168.602000C529.625000,168.945000,528.992000,169.117000,528.277000,169.117000C527.570000,169.117000,526.939000,168.947000,526.385000,168.607000C525.830000,168.268000,525.400000,167.783000,525.096000,167.154000C524.791000,166.521000,524.637000,165.795000,524.633000,164.975000L524.633000,164.553000C524.633000,163.713000,524.783000,162.975000,525.084000,162.338000C525.389000,161.697000,525.816000,161.207000,526.367000,160.867000C526.922000,160.523000,527.555000,160.352000,528.266000,160.352000C528.977000,160.352000,529.607000,160.523000,530.158000,160.867000C530.713000,161.207000,531.141000,161.697000,531.441000,162.338000C531.746000,162.975000,531.898000,163.711000,531.898000,164.547000L531.898000,164.928000ZM530.117000,164.541000C530.117000,163.646000,529.957000,162.967000,529.637000,162.502000C529.316000,162.037000,528.859000,161.805000,528.266000,161.805000C527.676000,161.805000,527.221000,162.035000,526.900000,162.496000C526.580000,162.953000,526.418000,163.625000,526.414000,164.512000L526.414000,164.928000C526.414000,165.799000,526.574000,166.475000,526.895000,166.955000C527.215000,167.436000,527.676000,167.676000,528.277000,167.676000C528.867000,167.676000,529.320000,167.445000,529.637000,166.984000C529.953000,166.520000,530.113000,165.844000,530.117000,164.957000L530.117000,164.541000ZM540.184000,164.928000C540.184000,165.768000,540.035000,166.504000,539.738000,167.137000C539.441000,167.770000,539.016000,168.258000,538.461000,168.602000C537.910000,168.945000,537.277000,169.117000,536.562000,169.117000C535.855000,169.117000,535.225000,168.947000,534.670000,168.607000C534.115000,168.268000,533.686000,167.783000,533.381000,167.154000C533.076000,166.521000,532.922000,165.795000,532.918000,164.975000L532.918000,164.553000C532.918000,163.713000,533.068000,162.975000,533.369000,162.338000C533.674000,161.697000,534.102000,161.207000,534.652000,160.867000C535.207000,160.523000,535.840000,160.352000,536.551000,160.352000C537.262000,160.352000,537.893000,160.523000,538.443000,160.867000C538.998000,161.207000,539.426000,161.697000,539.727000,162.338000C540.031000,162.975000,540.184000,163.711000,540.184000,164.547000L540.184000,164.928000ZM538.402000,164.541000C538.402000,163.646000,538.242000,162.967000,537.922000,162.502000C537.602000,162.037000,537.145000,161.805000,536.551000,161.805000C535.961000,161.805000,535.506000,162.035000,535.186000,162.496000C534.865000,162.953000,534.703000,163.625000,534.699000,164.512000L534.699000,164.928000C534.699000,165.799000,534.859000,166.475000,535.180000,166.955000C535.500000,167.436000,535.961000,167.676000,536.562000,167.676000C537.152000,167.676000,537.605000,167.445000,537.922000,166.984000C538.238000,166.520000,538.398000,165.844000,538.402000,164.957000L538.402000,164.541000ZM544.133000,165.578000L543.219000,166.562000L543.219000,169L541.461000,169L541.461000,160.469000L543.219000,160.469000L543.219000,164.336000L543.992000,163.275000L546.166000,160.469000L548.328000,160.469000L545.299000,164.260000L548.416000,169L546.324000,169L544.133000,165.578000Z" transform="translate(-533.589020,-164.734505)" fill="rgb(196,196,196)" stroke="none" stroke-width="1"/></g><g id="e18ym802lncc4_to" style="offset-path:path('M455.399998,245.494351C418.312351,233.694322,499.401917,155.963899,532.941587,133.139005');offset-rotate:0deg"><path id="e18ym802lncc4" d="M488.184000,162.893000L485.570000,162.893000L485.570000,170L483.812000,170L483.812000,162.893000L481.234000,162.893000L481.234000,161.469000L488.184000,161.469000L488.184000,162.893000ZM496.035000,165.928000C496.035000,166.768000,495.887000,167.504000,495.590000,168.137000C495.293000,168.770000,494.867000,169.258000,494.312000,169.602000C493.762000,169.945000,493.129000,170.117000,492.414000,170.117000C491.707000,170.117000,491.076000,169.947000,490.521000,169.607000C489.967000,169.268000,489.537000,168.783000,489.232000,168.154000C488.928000,167.521000,488.773000,166.795000,488.770000,165.975000L488.770000,165.553000C488.770000,164.713000,488.920000,163.975000,489.221000,163.338000C489.525000,162.697000,489.953000,162.207000,490.504000,161.867000C491.059000,161.523000,491.691000,161.352000,492.402000,161.352000C493.113000,161.352000,493.744000,161.523000,494.295000,161.867000C494.850000,162.207000,495.277000,162.697000,495.578000,163.338000C495.883000,163.975000,496.035000,164.711000,496.035000,165.547000L496.035000,165.928000ZM494.254000,165.541000C494.254000,164.646000,494.094000,163.967000,493.773000,163.502000C493.453000,163.037000,492.996000,162.805000,492.402000,162.805000C491.812000,162.805000,491.357000,163.035000,491.037000,163.496000C490.717000,163.953000,490.555000,164.625000,490.551000,165.512000L490.551000,165.928000C490.551000,166.799000,490.711000,167.475000,491.031000,167.955000C491.352000,168.436000,491.812000,168.676000,492.414000,168.676000C493.004000,168.676000,493.457000,168.445000,493.773000,167.984000C494.090000,167.520000,494.250000,166.844000,494.254000,165.957000L494.254000,165.541000Z" transform="translate(-488.634506,-165.734505)" fill="rgb(196,196,196)" stroke="none" stroke-width="1"/></g><g id="e18ym802lncc5_to" style="offset-path:path('M455.399998,245.494351C418.312351,233.694322,442.536338,156.694893,476.076008,133.869999');offset-rotate:0deg"><g id="e18ym802lncc5_ts" transform="scale(0.500000,1)"><path id="e18ym802lncc5" d="M500.566000,144.532000L502.822000,137.047000L505.105000,137.047000L501.640000,147L499.500000,147L496.048000,137.047000L498.324000,137.047000L500.566000,144.532000ZM508.229000,147L506.179000,147L506.179000,137.047000L508.229000,137.047000L508.229000,147ZM518.012000,145.742000C517.643000,146.184000,517.121000,146.528000,516.446000,146.774000C515.772000,147.016000,515.024000,147.137000,514.204000,147.137000C513.343000,147.137000,512.586000,146.950000,511.935000,146.576000C511.287000,146.198000,510.786000,145.651000,510.431000,144.936000C510.080000,144.220000,509.900000,143.379000,509.891000,142.413000L509.891000,141.736000C509.891000,140.743000,510.057000,139.884000,510.390000,139.159000C510.727000,138.430000,511.210000,137.874000,511.839000,137.491000C512.472000,137.104000,513.213000,136.910000,514.061000,136.910000C515.241000,136.910000,516.164000,137.193000,516.829000,137.758000C517.494000,138.318000,517.889000,139.136000,518.012000,140.212000L516.016000,140.212000C515.924000,139.642000,515.722000,139.225000,515.407000,138.961000C515.097000,138.697000,514.669000,138.564000,514.122000,138.564000C513.425000,138.564000,512.894000,138.826000,512.529000,139.351000C512.165000,139.875000,511.980000,140.654000,511.976000,141.688000L511.976000,142.324000C511.976000,143.368000,512.174000,144.156000,512.570000,144.689000C512.967000,145.223000,513.548000,145.489000,514.313000,145.489000C515.084000,145.489000,515.633000,145.325000,515.961000,144.997000L515.961000,143.281000L514.095000,143.281000L514.095000,141.771000L518.012000,141.771000L518.012000,145.742000ZM527.855000,142.249000C527.855000,143.229000,527.682000,144.088000,527.336000,144.826000C526.990000,145.564000,526.493000,146.134000,525.846000,146.535000C525.203000,146.936000,524.465000,147.137000,523.631000,147.137000C522.806000,147.137000,522.070000,146.938000,521.423000,146.542000C520.776000,146.146000,520.274000,145.580000,519.919000,144.847000C519.563000,144.108000,519.383000,143.261000,519.379000,142.304000L519.379000,141.812000C519.379000,140.832000,519.554000,139.970000,519.905000,139.228000C520.261000,138.480000,520.760000,137.908000,521.402000,137.512000C522.049000,137.111000,522.788000,136.910000,523.617000,136.910000C524.447000,136.910000,525.183000,137.111000,525.825000,137.512000C526.472000,137.908000,526.971000,138.480000,527.322000,139.228000C527.678000,139.970000,527.855000,140.829000,527.855000,141.805000L527.855000,142.249000ZM525.777000,141.798000C525.777000,140.754000,525.590000,139.961000,525.217000,139.419000C524.843000,138.877000,524.310000,138.605000,523.617000,138.605000C522.929000,138.605000,522.398000,138.874000,522.024000,139.412000C521.651000,139.945000,521.462000,140.729000,521.457000,141.764000L521.457000,142.249000C521.457000,143.265000,521.644000,144.054000,522.018000,144.614000C522.391000,145.175000,522.929000,145.455000,523.631000,145.455000C524.319000,145.455000,524.848000,145.186000,525.217000,144.648000C525.586000,144.106000,525.773000,143.318000,525.777000,142.283000L525.777000,141.798000ZM533.030000,143.356000L531.396000,143.356000L531.396000,147L529.346000,147L529.346000,137.047000L533.044000,137.047000C534.220000,137.047000,535.127000,137.309000,535.765000,137.833000C536.403000,138.357000,536.722000,139.098000,536.722000,140.055000C536.722000,140.734000,536.574000,141.301000,536.277000,141.757000C535.986000,142.208000,535.541000,142.568000,534.944000,142.837000L537.098000,146.904000L537.098000,147L534.896000,147L533.030000,143.356000ZM531.396000,141.695000L533.051000,141.695000C533.566000,141.695000,533.965000,141.565000,534.247000,141.306000C534.530000,141.041000,534.671000,140.679000,534.671000,140.219000C534.671000,139.749000,534.536000,139.380000,534.268000,139.111000C534.003000,138.842000,533.595000,138.708000,533.044000,138.708000L531.396000,138.708000L531.396000,141.695000ZM546.463000,142.249000C546.463000,143.229000,546.290000,144.088000,545.943000,144.826000C545.597000,145.564000,545.100000,146.134000,544.453000,146.535000C543.811000,146.936000,543.072000,147.137000,542.238000,147.137000C541.413000,147.137000,540.677000,146.938000,540.030000,146.542000C539.383000,146.146000,538.882000,145.580000,538.526000,144.847000C538.171000,144.108000,537.991000,143.261000,537.986000,142.304000L537.986000,141.812000C537.986000,140.832000,538.162000,139.970000,538.513000,139.228000C538.868000,138.480000,539.367000,137.908000,540.010000,137.512000C540.657000,137.111000,541.395000,136.910000,542.225000,136.910000C543.054000,136.910000,543.790000,137.111000,544.433000,137.512000C545.080000,137.908000,545.579000,138.480000,545.930000,139.228000C546.285000,139.970000,546.463000,140.829000,546.463000,141.805000L546.463000,142.249000ZM544.385000,141.798000C544.385000,140.754000,544.198000,139.961000,543.824000,139.419000C543.451000,138.877000,542.917000,138.605000,542.225000,138.605000C541.536000,138.605000,541.006000,138.874000,540.632000,139.412000C540.258000,139.945000,540.069000,140.729000,540.064000,141.764000L540.064000,142.249000C540.064000,143.265000,540.251000,144.054000,540.625000,144.614000C540.999000,145.175000,541.536000,145.455000,542.238000,145.455000C542.926000,145.455000,543.455000,145.186000,543.824000,144.648000C544.193000,144.106000,544.380000,143.318000,544.385000,142.283000L544.385000,141.798000ZM555.486000,137.047000L555.486000,143.603000C555.486000,144.692000,555.145000,145.553000,554.461000,146.187000C553.782000,146.820000,552.852000,147.137000,551.672000,147.137000C550.510000,147.137000,549.587000,146.829000,548.903000,146.214000C548.220000,145.599000,547.871000,144.753000,547.857000,143.678000L547.857000,137.047000L549.908000,137.047000L549.908000,143.616000C549.908000,144.268000,550.063000,144.744000,550.373000,145.045000C550.688000,145.341000,551.120000,145.489000,551.672000,145.489000C552.825000,145.489000,553.410000,144.883000,553.429000,143.671000L553.429000,137.047000L555.486000,137.047000ZM562.329000,144.389000C562.329000,144.001000,562.192000,143.705000,561.919000,143.500000C561.646000,143.290000,561.153000,143.072000,560.442000,142.844000C559.731000,142.611000,559.169000,142.383000,558.754000,142.160000C557.624000,141.549000,557.059000,140.727000,557.059000,139.692000C557.059000,139.155000,557.209000,138.676000,557.510000,138.257000C557.815000,137.833000,558.250000,137.503000,558.815000,137.266000C559.385000,137.029000,560.023000,136.910000,560.729000,136.910000C561.440000,136.910000,562.074000,137.040000,562.630000,137.300000C563.186000,137.555000,563.617000,137.917000,563.922000,138.387000C564.232000,138.856000,564.387000,139.389000,564.387000,139.986000L562.336000,139.986000C562.336000,139.531000,562.192000,139.177000,561.905000,138.927000C561.618000,138.672000,561.215000,138.544000,560.695000,138.544000C560.194000,138.544000,559.804000,138.651000,559.526000,138.865000C559.248000,139.075000,559.109000,139.353000,559.109000,139.699000C559.109000,140.023000,559.271000,140.294000,559.595000,140.513000C559.923000,140.731000,560.404000,140.937000,561.037000,141.128000C562.204000,141.479000,563.054000,141.914000,563.587000,142.434000C564.120000,142.953000,564.387000,143.600000,564.387000,144.375000C564.387000,145.236000,564.061000,145.913000,563.409000,146.405000C562.757000,146.893000,561.880000,147.137000,560.777000,147.137000C560.012000,147.137000,559.314000,146.998000,558.686000,146.720000C558.057000,146.437000,557.576000,146.052000,557.243000,145.564000C556.915000,145.077000,556.751000,144.512000,556.751000,143.869000L558.809000,143.869000C558.809000,144.967000,559.465000,145.517000,560.777000,145.517000C561.265000,145.517000,561.646000,145.419000,561.919000,145.223000C562.192000,145.022000,562.329000,144.744000,562.329000,144.389000ZM567.832000,145.353000L572.187000,145.353000L572.187000,147L565.781000,147L565.781000,137.047000L567.832000,137.047000L567.832000,145.353000ZM574.887000,141.531000L576.958000,137.047000L579.200000,137.047000L575.933000,143.391000L575.933000,147L573.848000,147L573.848000,143.391000L570.580000,137.047000L572.829000,137.047000L574.887000,141.531000Z" transform="translate(-537.624008,-142.023499)" fill="rgb(196,196,196)" stroke="none" stroke-width="1"/></g></g><g id="e18ym802lncc6_to" style="offset-path:path('M455.399998,245.494351C418.312351,233.694322,460.756328,136.408393,494.295998,113.583499');offset-rotate:0deg"><path id="e18ym802lncc6" d="M439.381000,138.708000L436.332000,138.708000L436.332000,147L434.281000,147L434.281000,138.708000L431.273000,138.708000L431.273000,137.047000L439.381000,137.047000L439.381000,138.708000ZM444.098000,141.531000L446.169000,137.047000L448.411000,137.047000L445.144000,143.391000L445.144000,147L443.059000,147L443.059000,143.391000L439.791000,137.047000L442.040000,137.047000L444.098000,141.531000ZM451.371000,143.493000L451.371000,147L449.320000,147L449.320000,137.047000L453.203000,137.047000C453.951000,137.047000,454.607000,137.184000,455.172000,137.457000C455.742000,137.730000,456.179000,138.120000,456.484000,138.626000C456.790000,139.127000,456.942000,139.699000,456.942000,140.342000C456.942000,141.317000,456.607000,142.087000,455.938000,142.652000C455.272000,143.213000,454.349000,143.493000,453.169000,143.493000L451.371000,143.493000ZM451.371000,141.832000L453.203000,141.832000C453.745000,141.832000,454.158000,141.704000,454.440000,141.449000C454.728000,141.194000,454.871000,140.829000,454.871000,140.355000C454.871000,139.868000,454.728000,139.474000,454.440000,139.173000C454.153000,138.872000,453.757000,138.717000,453.251000,138.708000L451.371000,138.708000L451.371000,141.832000ZM460.538000,147L458.487000,147L458.487000,137.047000L460.538000,137.047000L460.538000,147ZM470.539000,147L468.488000,147L464.496000,140.451000L464.496000,147L462.445000,147L462.445000,137.047000L464.496000,137.047000L468.495000,143.609000L468.495000,137.047000L470.539000,137.047000L470.539000,147ZM480.205000,145.742000C479.836000,146.184000,479.314000,146.528000,478.640000,146.774000C477.965000,147.016000,477.218000,147.137000,476.397000,147.137000C475.536000,147.137000,474.780000,146.950000,474.128000,146.576000C473.481000,146.198000,472.979000,145.651000,472.624000,144.936000C472.273000,144.220000,472.093000,143.379000,472.084000,142.413000L472.084000,141.736000C472.084000,140.743000,472.250000,139.884000,472.583000,139.159000C472.920000,138.430000,473.403000,137.874000,474.032000,137.491000C474.666000,137.104000,475.406000,136.910000,476.254000,136.910000C477.434000,136.910000,478.357000,137.193000,479.022000,137.758000C479.688000,138.318000,480.082000,139.136000,480.205000,140.212000L478.209000,140.212000C478.118000,139.642000,477.915000,139.225000,477.601000,138.961000C477.291000,138.697000,476.862000,138.564000,476.315000,138.564000C475.618000,138.564000,475.087000,138.826000,474.723000,139.351000C474.358000,139.875000,474.174000,140.654000,474.169000,141.688000L474.169000,142.324000C474.169000,143.368000,474.367000,144.156000,474.764000,144.689000C475.160000,145.223000,475.741000,145.489000,476.507000,145.489000C477.277000,145.489000,477.826000,145.325000,478.154000,144.997000L478.154000,143.281000L476.288000,143.281000L476.288000,141.771000L480.205000,141.771000L480.205000,145.742000Z" transform="translate(-455.738998,-142.023499)" fill="rgb(196,196,196)" stroke="none" stroke-width="1"/></g><path id="e18ym802lncc7" d="M435,265C432.600000,261.400000,411.500000,260.500000,402,260.500000L400.500000,274.500000L435,274.500000C436,272.833000,437.400000,268.600000,435,265Z" fill="rgb(0,0,0)" stroke="none" stroke-width="1"/><path id="e18ym802lncc8" d="M188.630000,68.960000C188.630000,65.464000,185.796000,62.630000,182.300000,62.630000C178.804000,62.630000,175.970000,65.464000,175.970000,68.960000L175.970000,90.810000C175.970000,94.306000,178.804000,97.140000,182.300000,97.140000C185.796000,97.140000,188.630000,94.306000,188.630000,90.810000L188.630000,68.960000Z" fill="rgb(0,0,0)" stroke="none" stroke-width="1"/><path id="e18ym802lncc9" d="M182.301000,133.870000C189.315000,133.870000,195.001000,128.184000,195.001000,121.170000C195.001000,114.156000,189.315000,108.470000,182.301000,108.470000C175.287000,108.470000,169.601000,114.156000,169.601000,121.170000C169.601000,128.184000,175.287000,133.870000,182.301000,133.870000Z" fill="rgb(251,220,142)" stroke="none" stroke-width="1"/><path id="e18ym802lncc10" d="M182.300000,82.880000C177.271000,82.878700,172.291000,83.868100,167.644000,85.791800C162.997000,87.715400,158.775000,90.535700,155.218000,94.091300C151.662000,97.647000,148.840000,101.869000,146.916000,106.515000C144.991000,111.161000,144,116.141000,144,121.170000L220.600000,121.170000C220.600000,116.141000,219.609000,111.161000,217.684000,106.515000C215.760000,101.869000,212.938000,97.647000,209.382000,94.091300C205.825000,90.535700,201.603000,87.715400,196.956000,85.791800C192.309000,83.868100,187.329000,82.878700,182.300000,82.880000L182.300000,82.880000Z" fill="#66C1B4" stroke="none" stroke-width="1"/><path id="e18ym802lncc11" d="M182.300000,69.920000L182.300000,1" fill="none" stroke="rgb(0,0,0)" stroke-width="2" stroke-linecap="round" stroke-linejoin="round"/><path id="e18ym802lncc12" d="M4.637470,309C19.757500,300.440000,83.047500,380.080000,54.097500,396.460000C26.747500,412,-13.772500,319.440000,4.637470,309Z" fill="rgb(251,220,142)" stroke="none" stroke-width="1"/><path id="e18ym802lncc13" d="M355.026000,375.897000C384.821000,375.897000,408.973000,366.696000,408.973000,355.346000C408.973000,343.996000,384.821000,334.795000,355.026000,334.795000C325.232000,334.795000,301.079000,343.996000,301.079000,355.346000C301.079000,366.696000,325.232000,375.897000,355.026000,375.897000Z" fill="rgb(0,0,0)" stroke="none" stroke-width="1"/><path id="e18ym802lncc14" d="M355.121000,364.254000L324.765000,455.534000" fill="none" stroke="rgb(0,0,0)" stroke-width="4" stroke-linecap="round" stroke-miterlimit="10"/><path id="e18ym802lncc15" d="M355.120000,364.254000L385.476000,455.534000" fill="none" stroke="rgb(0,0,0)" stroke-width="4" stroke-linecap="round" stroke-miterlimit="10"/><path id="e18ym802lncc16" d="M334.732000,425.562000L368.573000,404.715000" fill="none" stroke="rgb(0,0,0)" stroke-width="2" stroke-linecap="round" stroke-miterlimit="10"/><path id="e18ym802lncc17" d="M341.531000,404.715000L375.381000,425.562000" fill="none" stroke="rgb(0,0,0)" stroke-width="2" stroke-linecap="round" stroke-miterlimit="10"/><path id="e18ym802lncc18" d="M391.900000,260C391.723000,263.500000,391.800000,275.757000,390.900000,281" fill="none" stroke="rgb(31,22,30)" stroke-width="1" stroke-linecap="round" stroke-miterlimit="10"/><path id="e18ym802lncc19" d="M88.057800,295C107.058000,298.600000,103.668000,412,67.197800,405.140000C32.757800,398.600000,64.877800,290.590000,88.057800,295Z" fill="rgb(0,0,0)" stroke="none" stroke-width="1"/><path id="e18ym802lncc20" d="M81.687500,459.920000L43.507500,459.920000C41.969700,459.920000,40.486000,459.352000,39.340300,458.326000C38.194600,457.301000,37.467300,455.888000,37.297500,454.360000L32.477500,411.080000C32.373000,410.202000,32.455600,409.312000,32.719900,408.469000C32.984100,407.625000,33.424100,406.847000,34.010800,406.186000C34.597400,405.524000,35.317500,404.995000,36.123600,404.632000C36.929700,404.269000,37.803500,404.081000,38.687500,404.080000L86.307500,404.080000C87.184400,404.081000,88.051400,404.266000,88.852200,404.623000C89.652900,404.981000,90.369400,405.503000,90.955100,406.156000C91.540800,406.808000,91.982600,407.577000,92.251800,408.412000C92.521000,409.246000,92.611500,410.128000,92.517500,411L87.907500,454.280000C87.753800,455.824000,87.032500,457.255000,85.883300,458.297000C84.734000,459.340000,83.238800,459.918000,81.687500,459.920000Z" fill="rgb(88,88,88)" stroke="none" stroke-width="1"/><path id="e18ym802lncc21" d="M98.787800,250.840000C113.258000,255.040000,102.168000,342.570000,74.457800,334.510000C48.297800,326.910000,81.177800,245.720000,98.787800,250.840000Z" fill="#66C1B4" stroke="none" stroke-width="1"/><path id="e18ym802lncc22" d="M122.647000,320.480000C132.647000,329.100000,91.967400,395.040000,72.747400,378.480000C54.597400,362.910000,110.437000,310,122.647000,320.480000Z" fill="rgb(251,220,142)" stroke="none" stroke-width="1"/><path id="e18ym802lncc23" d="M62.697400,259.940000C84.357400,259.940000,104.187000,398.240000,62.697400,398.240000C23.517400,398.240000,36.327400,259.940000,62.697400,259.940000Z" fill="#D07B7B" stroke="none" stroke-width="1"/><path id="e18ym802lncc24" d="M100.707000,394.720000L24.507000,394.720000C22.270300,394.720000,20.457000,396.533000,20.457000,398.770000L20.457000,406.150000C20.457000,408.387000,22.270300,410.200000,24.507000,410.200000L100.707000,410.200000C102.944000,410.200000,104.757000,408.387000,104.757000,406.150000L104.757000,398.770000C104.757000,396.533000,102.944000,394.720000,100.707000,394.720000Z" fill="#A19690" stroke="none" stroke-width="1"/><path id="e18ym802lncc25" d="M653.230000,86.940100L507.230000,86.940100C506.551000,86.940100,506,87.490700,506,88.170100L506,88.930100C506,89.609400,506.551000,90.160100,507.230000,90.160100L653.230000,90.160100C653.909000,90.160100,654.460000,89.609400,654.460000,88.930100L654.460000,88.170100C654.460000,87.490700,653.909000,86.940100,653.230000,86.940100Z" fill="#A19690" stroke="none" stroke-width="1"/><path id="e18ym802lncc26" d="M568.901000,23L560.031000,23C558.617000,23,557.471000,24.146100,557.471000,25.560000L557.471000,84.380000C557.471000,85.793900,558.617000,86.940000,560.031000,86.940000L568.901000,86.940000C570.315000,86.940000,571.461000,85.793900,571.461000,84.380000L571.461000,25.560000C571.461000,24.146100,570.315000,23,568.901000,23Z" fill="rgb(88,88,88)" stroke="none" stroke-width="1"/><path id="e18ym802lncc27" d="M576.330000,37.990000L573.590000,37.990000C572.414000,37.990000,571.460000,38.943600,571.460000,40.120000L571.460000,84.810000C571.460000,85.986300,572.414000,86.940000,573.590000,86.940000L576.330000,86.940000C577.506000,86.940000,578.460000,85.986300,578.460000,84.810000L578.460000,40.120000C578.460000,38.943600,577.506000,37.990000,576.330000,37.990000Z" fill="#A19690" stroke="none" stroke-width="1"/><path id="e18ym802lncc28" d="M583.400000,37.990000L580.520000,37.990000C579.382000,37.990000,578.460000,38.912300,578.460000,40.050000L578.460000,84.880000C578.460000,86.017700,579.382000,86.940000,580.520000,86.940000L583.400000,86.940000C584.538000,86.940000,585.460000,86.017700,585.460000,84.880000L585.460000,40.050000C585.460000,38.912300,584.538000,37.990000,583.400000,37.990000Z" fill="rgb(88,88,88)" stroke="none" stroke-width="1"/><path id="e18ym802lncc29" d="M588.476000,41.493300L586.114000,42.578100C585.009000,43.085100,584.525000,44.391200,585.032000,45.495400L603.620000,85.982400C604.127000,87.086600,605.433000,87.570800,606.537000,87.063900L608.900000,85.979100C610.004000,85.472100,610.488000,84.166000,609.981000,83.061800L591.394000,42.574800C590.887000,41.470500,589.581000,40.986400,588.476000,41.493300Z" fill="#A19690" stroke="none" stroke-width="1"/><path id="e18ym802lncc30" d="M564.460000,70.760000C566.619000,70.760000,568.370000,69.009400,568.370000,66.850000C568.370000,64.690600,566.619000,62.940000,564.460000,62.940000C562.300000,62.940000,560.550000,64.690600,560.550000,66.850000C560.550000,69.009400,562.300000,70.760000,564.460000,70.760000Z" fill="#A19690" stroke="none" stroke-width="1"/><path id="e18ym802lncc31" d="M568,73.100000L560.920000,73.100000C560.401000,73.100000,559.980000,73.520800,559.980000,74.040000C559.980000,74.559100,560.401000,74.980000,560.920000,74.980000L568,74.980000C568.520000,74.980000,568.940000,74.559100,568.940000,74.040000C568.940000,73.520800,568.520000,73.100000,568,73.100000Z" fill="#A19690" stroke="none" stroke-width="1"/><path id="e18ym802lncc32" d="M568,77.910000L560.920000,77.910000C560.401000,77.910000,559.980000,78.330800,559.980000,78.850000C559.980000,79.369100,560.401000,79.790000,560.920000,79.790000L568,79.790000C568.520000,79.790000,568.940000,79.369100,568.940000,78.850000C568.940000,78.330800,568.520000,77.910000,568,77.910000Z" fill="#A19690" stroke="none" stroke-width="1"/><path id="e18ym802lncc33" d="M575.690000,45.380000C575.690000,44.976800,575.364000,44.650000,574.960000,44.650000C574.557000,44.650000,574.230000,44.976800,574.230000,45.380000L574.230000,79.540000C574.230000,79.943100,574.557000,80.270000,574.960000,80.270000C575.364000,80.270000,575.690000,79.943100,575.690000,79.540000L575.690000,45.380000Z" fill="rgb(88,88,88)" stroke="none" stroke-width="1"/><path id="e18ym802lncc34" d="M544.980000,88.550000L538.720000,88.550000C537.345000,88.550000,536.230000,89.664800,536.230000,91.040000C536.230000,92.415200,537.345000,93.530000,538.720000,93.530000L544.980000,93.530000C546.356000,93.530000,547.470000,92.415200,547.470000,91.040000C547.470000,89.664800,546.356000,88.550000,544.980000,88.550000Z" fill="#A19690" stroke="none" stroke-width="1"/><path id="e18ym802lncc35" d="M621.740000,88.550000L615.480000,88.550000C614.105000,88.550000,612.990000,89.664800,612.990000,91.040000C612.990000,92.415200,614.105000,93.530000,615.480000,93.530000L621.740000,93.530000C623.115000,93.530000,624.230000,92.415200,624.230000,91.040000C624.230000,89.664800,623.115000,88.550000,621.740000,88.550000Z" fill="#A19690" stroke="none" stroke-width="1"/><path id="e18ym802lncc36" d="M406.900000,292.823000L403.034000,271.238000C402.514000,249.217000,397.382000,200.014000,390.093000,192.697000C388.380000,190.986000,354.493000,188,348.448000,188C312.371000,188,301.670000,192.127000,298.952000,194.859000C290.526000,203.310000,287.900000,242.464000,287.900000,256.175000C287.900000,269.886000,306.373000,307,306.373000,307L349.763000,307C349.763000,307,380.270000,295.753000,388.857000,296.260000C389.047000,293.619000,406.900000,292.823000,406.900000,292.823000Z" fill="#D07B7B" stroke="none" stroke-width="1"/><path id="e18ym802lncc37" d="M382.900000,219C384.445000,221.992000,391.900000,250.855000,391.900000,260" fill="none" stroke="rgb(31,22,30)" stroke-width="1" stroke-linecap="round" stroke-miterlimit="10"/><path id="e18ym802lncc38" d="M308,292C294.991000,292,287.900000,286.556000,287.900000,254L323.377000,254.014000C323.053000,254.784000,320.564000,263.613000,320.564000,267.435000C320.564000,269.540000,322.659000,270.084000,323.904000,270.084000C325.149000,270.084000,345.775000,267.062000,371.500000,263C381,261.500000,382,265.500000,381,270.084000C382,275,337.984000,292,308,292Z" fill="rgb(248,205,186)" stroke="none" stroke-width="1"/><g id="e18ym802lncc39_tr" transform="translate(377.900000,267.500000) rotate(0)"><path id="e18ym802lncc39" d="M388.297000,255.521000C381.658000,256.996000,377.015000,259.408000,375.027000,261.256000C367,267,376.885000,270.658000,381.456000,272.028000C384.055000,270.898000,389.746000,268.839000,393.814000,268.489000C399.015000,268.040000,402.438000,271.557000,408,271C413.562000,270.443000,413.791000,266.232000,411,263.500000C408.209000,260.768000,407.735000,257.079000,399.840000,255.443000C397.204000,254.897000,393.275000,254.416000,388.297000,255.521000Z" transform="translate(-377.900000,-267.500000)" fill="rgb(248,205,186)" stroke="none" stroke-width="1"/></g><path id="e18ym802lncc40" d="M325.900000,226C324.680000,228.427000,324,250.944000,322.900000,254" fill="none" stroke="rgb(31,22,30)" stroke-width="1" stroke-linecap="round" stroke-miterlimit="10"/><path id="e18ym802lncc41" d="M644.847000,454.460000C645.463000,456.802000,647.860000,458.201000,650.202000,457.586000C652.544000,456.970000,653.943000,454.573000,653.328000,452.231000L609.486000,285.472000C608.870000,283.130000,606.473000,281.731000,604.131000,282.347000C601.789000,282.962000,600.390000,285.360000,601.006000,287.702000L644.847000,454.460000Z" fill="rgb(88,88,88)" stroke="none" stroke-width="1"/><path id="e18ym802lncc42" d="M600.570000,287.709000C601.185000,285.367000,599.786000,282.970000,597.444000,282.354000C595.102000,281.738000,592.705000,283.137000,592.089000,285.479000L548.248000,452.238000C547.632000,454.580000,549.031000,456.977000,551.373000,457.593000C553.715000,458.209000,556.112000,456.809000,556.728000,454.468000L600.570000,287.709000Z" fill="rgb(88,88,88)" stroke="none" stroke-width="1"/><path id="e18ym802lncc43" d="M583.589000,451.382000C584.194000,453.731000,586.589000,455.144000,588.938000,454.539000C591.286000,453.934000,592.700000,451.539000,592.094000,449.190000L548.988000,281.937000C548.383000,279.589000,545.988000,278.175000,543.639000,278.781000C541.290000,279.386000,539.877000,281.781000,540.482000,284.130000L583.589000,451.382000Z" fill="#A19690" stroke="none" stroke-width="1"/><path id="e18ym802lncc44" d="M293.097000,287.712000C293.713000,285.370000,292.313000,282.973000,289.972000,282.357000C287.630000,281.741000,285.232000,283.141000,284.617000,285.483000L240.775000,452.241000C240.159000,454.583000,241.559000,456.981000,243.900000,457.596000C246.242000,458.212000,248.640000,456.813000,249.255000,454.471000L293.097000,287.712000Z" fill="rgb(88,88,88)" stroke="none" stroke-width="1"/><path id="e18ym802lncc45" d="M230.437000,287.715000C231.053000,285.373000,229.653000,282.975000,227.311000,282.360000C224.970000,281.744000,222.572000,283.143000,221.957000,285.485000L178.115000,452.244000C177.499000,454.586000,178.898000,456.983000,181.240000,457.599000C183.582000,458.214000,185.980000,456.815000,186.595000,454.473000L230.437000,287.715000Z" fill="#A19690" stroke="none" stroke-width="1"/><path id="e18ym802lncc46" d="M273.968000,454.471000C274.584000,456.813000,276.981000,458.212000,279.323000,457.597000C281.665000,456.981000,283.064000,454.584000,282.449000,452.242000L238.607000,285.483000C237.991000,283.141000,235.594000,281.742000,233.252000,282.358000C230.910000,282.973000,229.511000,285.371000,230.127000,287.713000L273.968000,454.471000Z" fill="#A19690" stroke="none" stroke-width="1"/><path id="e18ym802lncc47" d="M422.900000,272L376.900000,272L376.900000,275L422.900000,275L422.900000,272Z" fill="rgb(88,88,88)" stroke="none" stroke-width="1"/><path id="e18ym802lncc48" d="M337.900000,196.344000C337.900000,198.552000,361.900000,198.552000,361.900000,196.344000L361.900000,174L337.900000,174L337.900000,196.344000Z" fill="rgb(248,205,186)" stroke="none" stroke-width="1"/><path id="e18ym802lncc49" d="M351.900000,182.003000C350.003000,182.003000,337.900000,187.782000,337.900000,191L337.900000,174C340.917000,174,351.900000,182.003000,351.900000,182.003000Z" fill="rgb(31,22,30)" stroke="none" stroke-width="1"/><path id="e18ym802lncc50" d="M355.400000,184C341.869000,184,330.900000,173.255000,330.900000,160C330.900000,146.745000,341.869000,136,355.400000,136C368.931000,136,379.900000,146.745000,379.900000,160C379.900000,173.255000,368.931000,184,355.400000,184Z" fill="rgb(248,205,186)" stroke="none" stroke-width="1"/><path id="e18ym802lncc51" d="M363.839000,125C376.193000,125,383.900000,132.663000,383.900000,142.484000C383.900000,150.651000,381.889000,155.271000,379.532000,156.441000C378.041000,148.512000,374.798000,144.842000,372.113000,143.264000C370.035000,144.842000,366.456000,148.664000,361.683000,149.843000C356.911000,151.022000,344.489000,150.793000,334.453000,158C331.181000,155.053000,327.900000,151.221000,327.900000,146.705000C327.900000,142.189000,329.921000,136.523000,341.814000,133.252000C349.656000,131.094000,350.743000,125,363.839000,125Z" fill="rgb(31,22,30)" stroke="none" stroke-width="1"/><g id="e18ym802lncc52_tr" transform="translate(487.202552,372.370988) rotate(0)"><path id="e18ym802lncc52" d="M481.230000,374.535000C481.714000,375.503000,488.455000,386.082000,491.222000,386.516000C493.988000,386.949000,512.179000,377.451000,511.721000,374.909000C511.264000,372.367000,500.495000,372.743000,498.772000,371.680000C497.049000,370.616000,493.465000,366.091000,493.029000,364.205000" transform="scale(1.308282,1.268783) translate(-487.606680,-376.975000)" fill="rgb(31,22,30)" stroke="none" stroke-width="1"/></g><path id="e18ym802lncc53" d="M414,320C414.083000,324.429000,421.102000,413.292000,422.519000,415.125000C423.936000,416.959000,440.579000,422.577000,442.356000,419.997000C443.150000,415.669000,453.380000,335.116000,455,329" fill="rgb(31,22,30)" stroke="none" stroke-width="1"/><path id="e18ym802lncc54" d="M306.281000,305.073000C301.370000,301.069000,306.509000,356.622000,335.601000,359.969000C364.693000,363.315000,418.465000,324.314000,426.394000,325.226000C443.896000,327.239000,480.197000,376.601000,483.446000,376.975000C486.304000,374.033000,496.745000,362.188000,497,359.969000C497.255000,357.750000,462.518000,275.223000,432.837000,271.809000C421.329000,270.471000,317.369000,314.123000,306.281000,305.073000Z" fill="rgb(108,134,161)" stroke="none" stroke-width="1"/><path id="e18ym802lncc55" d="M326.750000,307.238000C334.382000,305.678000,343.928000,301.420000,352.391000,297.034000C329.474000,303.983000,310.722000,308.408000,305.395000,305.633000C301.765000,303.749000,303.703000,321.888000,311.956000,339.496000C310.467000,336.088000,308.777000,310.909000,326.750000,307.238000Z" fill="rgb(31,22,30)" stroke="none" stroke-width="1"/><path id="e18ym802lncc56" d="M423.874000,415.153000C423.535000,416.244000,420.887000,429.265000,422.681000,431.630000C424.476000,433.995000,445.320000,440.139000,446.835000,437.859000C448.349000,435.580000,439.830000,427.953000,439.346000,425.881000C438.861000,423.810000,439.406000,417.744000,440.487000,415.955000" fill="rgb(31,22,30)" stroke="none" stroke-width="1"/><path id="e18ym802lncc57" d="M479.720000,275L414.900000,275L426.644000,234.376000C426.937000,233.396000,427.538000,232.538000,428.356000,231.929000C429.174000,231.321000,430.166000,230.995000,431.184000,231.001000L486.187000,231.001000C486.910000,230.989000,487.625000,231.147000,488.276000,231.463000C488.927000,231.778000,489.495000,232.242000,489.936000,232.818000C490.377000,233.394000,490.678000,234.065000,490.816000,234.779000C490.953000,235.492000,490.923000,236.228000,490.727000,236.928000L479.720000,275Z" fill="rgb(88,88,88)" stroke="none" stroke-width="1"/><path id="e18ym802lncc58" d="M455.400000,257C457.886000,257,459.900000,255.209000,459.900000,253C459.900000,250.791000,457.886000,249,455.400000,249C452.915000,249,450.900000,250.791000,450.900000,253C450.900000,255.209000,452.915000,257,455.400000,257Z" fill="rgb(255,255,255)" stroke="none" stroke-width="1"/><g id="e18ym802lncc59"><path id="e18ym802lncc60" d="M377.900000,167C375.691000,167,373.900000,166.328000,373.900000,165.500000C373.900000,164.672000,375.691000,164,377.900000,164C380.110000,164,381.900000,164.672000,381.900000,165.500000C381.900000,166.328000,380.110000,167,377.900000,167Z" transform="matrix(1 0 0 1 1 -1)" fill="rgb(250,158,159)" stroke="none" stroke-width="1"/><path id="e18ym802lncc61" d="M351.400000,167C348.915000,167,346.900000,166.328000,346.900000,165.500000C346.900000,164.672000,348.915000,164,351.400000,164C353.886000,164,355.900000,164.672000,355.900000,165.500000C355.900000,166.328000,353.886000,167,351.400000,167Z" transform="matrix(1 0 0 1 0.50000000000000 -1)" fill="rgb(250,158,159)" stroke="none" stroke-width="1"/></g><path id="e18ym802lncc62" d="M367.900000,161C368.854000,162.016000,373.716000,166.280000,368.587000,168" fill="none" stroke="rgb(31,22,30)" stroke-width="1" stroke-linecap="round" stroke-miterlimit="10"/><path id="e18ym802lncc63" d="M359.900000,174C358.715000,174,356.869000,171.891000,355.900000,170" transform="matrix(0.82133220620055 -0.57045017929504 0.57045017929504 0.82133220620055 -34.47669852163523 235.71900395105092)" fill="none" stroke="rgb(31,22,30)" stroke-width="1" stroke-linecap="round" stroke-miterlimit="10"/><path id="e18ym802lncc64" d="M333.400000,168C330.363000,168,327.900000,165.761000,327.900000,163C327.900000,160.239000,330.363000,158,333.400000,158C336.438000,158,338.900000,160.239000,338.900000,163C338.900000,165.761000,336.438000,168,333.400000,168Z" fill="rgb(248,205,186)" stroke="none" stroke-width="1"/><path id="e18ym802lncc65" d="M540.074000,287.708000C540.689000,285.366000,539.290000,282.968000,536.948000,282.353000C534.606000,281.737000,532.209000,283.136000,531.593000,285.478000L487.752000,452.237000C487.136000,454.579000,488.535000,456.976000,490.877000,457.592000C493.219000,458.208000,495.616000,456.808000,496.232000,454.466000L540.074000,287.708000Z" fill="#A19690" stroke="none" stroke-width="1"/><path id="e18ym802lncc66" d="M336.629000,454.471000C337.245000,456.813000,339.643000,458.212000,341.984000,457.597000C344.326000,456.981000,345.726000,454.583000,345.110000,452.242000L301.268000,285.483000C300.653000,283.141000,298.255000,281.742000,295.913000,282.357000C293.571000,282.973000,292.172000,285.371000,292.788000,287.712000L336.629000,454.471000Z" fill="rgb(88,88,88)" stroke="none" stroke-width="1"/><path id="e18ym802lncc67" d="M628.019000,274L203.781000,274C201.638000,274,199.900000,276.008000,199.900000,278.485000L199.900000,284.515000C199.900000,286.992000,201.638000,289,203.781000,289L628.019000,289C630.163000,289,631.900000,286.992000,631.900000,284.515000L631.900000,278.485000C631.900000,276.008000,630.163000,274,628.019000,274Z" fill="#A19690" stroke="none" stroke-width="1"/></svg>