<svg width="152" height="261" viewBox="0 0 152 261" fill="none" xmlns="http://www.w3.org/2000/svg">
<circle cx="96" cy="56" r="56" fill="#EBA0A0"/>
<circle cx="79.6552" cy="256.034" r="4.34483" transform="rotate(180 79.6552 256.034)" fill="#6C86A1"/>
<circle cx="79.6552" cy="154.655" r="4.34483" transform="rotate(180 79.6552 154.655)" fill="#6C86A1"/>
<circle cx="28.9657" cy="256.034" r="4.34483" transform="rotate(180 28.9657 256.034)" fill="#6C86A1"/>
<circle cx="28.9657" cy="154.655" r="4.34483" transform="rotate(180 28.9657 154.655)" fill="#6C86A1"/>
<circle cx="55.0346" cy="256.034" r="4.34483" transform="rotate(180 55.0346 256.034)" fill="#6C86A1"/>
<circle cx="55.0346" cy="154.655" r="4.34483" transform="rotate(180 55.0346 154.655)" fill="#6C86A1"/>
<circle cx="4.34462" cy="256.034" r="4.34483" transform="rotate(180 4.34462 256.034)" fill="#6C86A1"/>
<circle cx="4.34462" cy="154.655" r="4.34483" transform="rotate(180 4.34462 154.655)" fill="#6C86A1"/>
<circle cx="79.6552" cy="231.414" r="4.34483" transform="rotate(180 79.6552 231.414)" fill="#6C86A1"/>
<circle cx="79.6552" cy="130.034" r="4.34483" transform="rotate(180 79.6552 130.034)" fill="#6C86A1"/>
<circle cx="28.9657" cy="231.414" r="4.34483" transform="rotate(180 28.9657 231.414)" fill="#6C86A1"/>
<circle cx="28.9657" cy="130.034" r="4.34483" transform="rotate(180 28.9657 130.034)" fill="#6C86A1"/>
<circle cx="55.0346" cy="231.414" r="4.34483" transform="rotate(180 55.0346 231.414)" fill="#6C86A1"/>
<circle cx="55.0346" cy="130.034" r="4.34483" transform="rotate(180 55.0346 130.034)" fill="#6C86A1"/>
<circle cx="4.34462" cy="231.414" r="4.34483" transform="rotate(180 4.34462 231.414)" fill="#6C86A1"/>
<circle cx="4.34462" cy="130.034" r="4.34483" transform="rotate(180 4.34462 130.034)" fill="#6C86A1"/>
<circle cx="79.6552" cy="205.345" r="4.34483" transform="rotate(180 79.6552 205.345)" fill="#6C86A1"/>
<circle cx="79.6552" cy="103.965" r="4.34483" transform="rotate(180 79.6552 103.965)" fill="#6C86A1"/>
<circle cx="28.9657" cy="205.345" r="4.34483" transform="rotate(180 28.9657 205.345)" fill="#6C86A1"/>
<circle cx="28.9657" cy="103.965" r="4.34483" transform="rotate(180 28.9657 103.965)" fill="#6C86A1"/>
<circle cx="55.0346" cy="205.345" r="4.34483" transform="rotate(180 55.0346 205.345)" fill="#6C86A1"/>
<circle cx="55.0346" cy="103.965" r="4.34483" transform="rotate(180 55.0346 103.965)" fill="#6C86A1"/>
<circle cx="4.34462" cy="205.345" r="4.34483" transform="rotate(180 4.34462 205.345)" fill="#6C86A1"/>
<circle cx="4.34462" cy="103.965" r="4.34483" transform="rotate(180 4.34462 103.965)" fill="#6C86A1"/>
<circle cx="79.6552" cy="180.724" r="4.34483" transform="rotate(180 79.6552 180.724)" fill="#6C86A1"/>
<circle cx="79.6552" cy="79.3447" r="4.34483" transform="rotate(180 79.6552 79.3447)" fill="#6C86A1"/>
<circle cx="28.9657" cy="180.724" r="4.34483" transform="rotate(180 28.9657 180.724)" fill="#6C86A1"/>
<circle cx="28.9657" cy="79.3447" r="4.34483" transform="rotate(180 28.9657 79.3447)" fill="#6C86A1"/>
<circle cx="55.0346" cy="180.724" r="4.34483" transform="rotate(180 55.0346 180.724)" fill="#6C86A1"/>
<circle cx="55.0346" cy="79.3447" r="4.34483" transform="rotate(180 55.0346 79.3447)" fill="#6C86A1"/>
<circle cx="4.34462" cy="180.724" r="4.34483" transform="rotate(180 4.34462 180.724)" fill="#6C86A1"/>
<circle cx="4.34462" cy="79.3447" r="4.34483" transform="rotate(180 4.34462 79.3447)" fill="#6C86A1"/>
</svg>
