<svg width="60" height="120" viewBox="0 0 60 120" fill="none" xmlns="http://www.w3.org/2000/svg">
<circle cx="28.9657" cy="115.345" r="4.34483" transform="rotate(180 28.9657 115.345)" fill="#6C86A1"/>
<circle cx="28.9657" cy="13.9655" r="4.34483" transform="rotate(180 28.9657 13.9655)" fill="#6C86A1"/>
<circle cx="55.0346" cy="115.345" r="4.34483" transform="rotate(180 55.0346 115.345)" fill="#6C86A1"/>
<circle cx="55.0346" cy="13.9655" r="4.34483" transform="rotate(180 55.0346 13.9655)" fill="#6C86A1"/>
<circle cx="4.34462" cy="115.345" r="4.34483" transform="rotate(180 4.34462 115.345)" fill="#6C86A1"/>
<circle cx="4.34462" cy="13.9655" r="4.34483" transform="rotate(180 4.34462 13.9655)" fill="#6C86A1"/>
<circle cx="28.9657" cy="90.7241" r="4.34483" transform="rotate(180 28.9657 90.7241)" fill="#6C86A1"/>
<circle cx="55.0346" cy="90.7241" r="4.34483" transform="rotate(180 55.0346 90.7241)" fill="#6C86A1"/>
<circle cx="4.34462" cy="90.7241" r="4.34483" transform="rotate(180 4.34462 90.7241)" fill="#6C86A1"/>
<circle cx="28.9657" cy="64.6552" r="4.34483" transform="rotate(180 28.9657 64.6552)" fill="#6C86A1"/>
<circle cx="55.0346" cy="64.6552" r="4.34483" transform="rotate(180 55.0346 64.6552)" fill="#6C86A1"/>
<circle cx="4.34462" cy="64.6552" r="4.34483" transform="rotate(180 4.34462 64.6552)" fill="#6C86A1"/>
<circle cx="28.9657" cy="40.0344" r="4.34483" transform="rotate(180 28.9657 40.0344)" fill="#6C86A1"/>
<circle cx="55.0346" cy="40.0344" r="4.34483" transform="rotate(180 55.0346 40.0344)" fill="#6C86A1"/>
<circle cx="4.34462" cy="40.0344" r="4.34483" transform="rotate(180 4.34462 40.0344)" fill="#6C86A1"/>
</svg>
