<svg width="84" height="186" viewBox="0 0 84 186" fill="none" xmlns="http://www.w3.org/2000/svg">
<circle cx="79.6552" cy="181.034" r="4.34483" transform="rotate(180 79.6552 181.034)" fill="#6C86A1"/>
<circle cx="79.6552" cy="79.6552" r="4.34483" transform="rotate(180 79.6552 79.6552)" fill="#6C86A1"/>
<circle cx="28.9655" cy="181.034" r="4.34483" transform="rotate(180 28.9655 181.034)" fill="#6C86A1"/>
<circle cx="28.9655" cy="79.6552" r="4.34483" transform="rotate(180 28.9655 79.6552)" fill="#6C86A1"/>
<circle cx="55.0344" cy="181.034" r="4.34483" transform="rotate(180 55.0344 181.034)" fill="#6C86A1"/>
<circle cx="55.0344" cy="79.6552" r="4.34483" transform="rotate(180 55.0344 79.6552)" fill="#6C86A1"/>
<circle cx="4.34487" cy="181.034" r="4.34483" transform="rotate(180 4.34487 181.034)" fill="#6C86A1"/>
<circle cx="4.34487" cy="79.6552" r="4.34483" transform="rotate(180 4.34487 79.6552)" fill="#6C86A1"/>
<circle cx="79.6552" cy="156.414" r="4.34483" transform="rotate(180 79.6552 156.414)" fill="#6C86A1"/>
<circle cx="79.6552" cy="55.0344" r="4.34483" transform="rotate(180 79.6552 55.0344)" fill="#6C86A1"/>
<circle cx="28.9655" cy="156.414" r="4.34483" transform="rotate(180 28.9655 156.414)" fill="#6C86A1"/>
<circle cx="28.9655" cy="55.0344" r="4.34483" transform="rotate(180 28.9655 55.0344)" fill="#6C86A1"/>
<circle cx="55.0344" cy="156.414" r="4.34483" transform="rotate(180 55.0344 156.414)" fill="#6C86A1"/>
<circle cx="55.0344" cy="55.0344" r="4.34483" transform="rotate(180 55.0344 55.0344)" fill="#6C86A1"/>
<circle cx="4.34487" cy="156.414" r="4.34483" transform="rotate(180 4.34487 156.414)" fill="#6C86A1"/>
<circle cx="4.34487" cy="55.0344" r="4.34483" transform="rotate(180 4.34487 55.0344)" fill="#6C86A1"/>
<circle cx="79.6552" cy="130.345" r="4.34483" transform="rotate(180 79.6552 130.345)" fill="#6C86A1"/>
<circle cx="79.6552" cy="28.9655" r="4.34483" transform="rotate(180 79.6552 28.9655)" fill="#6C86A1"/>
<circle cx="28.9655" cy="130.345" r="4.34483" transform="rotate(180 28.9655 130.345)" fill="#6C86A1"/>
<circle cx="28.9655" cy="28.9655" r="4.34483" transform="rotate(180 28.9655 28.9655)" fill="#6C86A1"/>
<circle cx="55.0344" cy="130.345" r="4.34483" transform="rotate(180 55.0344 130.345)" fill="#6C86A1"/>
<circle cx="55.0344" cy="28.9655" r="4.34483" transform="rotate(180 55.0344 28.9655)" fill="#6C86A1"/>
<circle cx="4.34487" cy="130.345" r="4.34483" transform="rotate(180 4.34487 130.345)" fill="#6C86A1"/>
<circle cx="4.34487" cy="28.9655" r="4.34483" transform="rotate(180 4.34487 28.9655)" fill="#6C86A1"/>
<circle cx="79.6552" cy="105.724" r="4.34483" transform="rotate(180 79.6552 105.724)" fill="#6C86A1"/>
<circle cx="79.6552" cy="4.34475" r="4.34483" transform="rotate(180 79.6552 4.34475)" fill="#6C86A1"/>
<circle cx="28.9655" cy="105.724" r="4.34483" transform="rotate(180 28.9655 105.724)" fill="#6C86A1"/>
<circle cx="28.9655" cy="4.34475" r="4.34483" transform="rotate(180 28.9655 4.34475)" fill="#6C86A1"/>
<circle cx="55.0344" cy="105.724" r="4.34483" transform="rotate(180 55.0344 105.724)" fill="#6C86A1"/>
<circle cx="55.0344" cy="4.34475" r="4.34483" transform="rotate(180 55.0344 4.34475)" fill="#6C86A1"/>
<circle cx="4.34487" cy="105.724" r="4.34483" transform="rotate(180 4.34487 105.724)" fill="#6C86A1"/>
<circle cx="4.34487" cy="4.34475" r="4.34483" transform="rotate(180 4.34487 4.34475)" fill="#6C86A1"/>
</svg>
