<svg width="85" height="186" viewBox="0 0 85 186" fill="none" xmlns="http://www.w3.org/2000/svg">
<circle cx="80.3446" cy="181.345" r="4.34483" transform="rotate(180 80.3446 181.345)" fill="#6C86A1"/>
<circle cx="80.3446" cy="79.9656" r="4.34483" transform="rotate(180 80.3446 79.9656)" fill="#6C86A1"/>
<circle cx="29.6552" cy="181.345" r="4.34483" transform="rotate(180 29.6552 181.345)" fill="#6C86A1"/>
<circle cx="29.6552" cy="79.9656" r="4.34483" transform="rotate(180 29.6552 79.9656)" fill="#6C86A1"/>
<circle cx="55.7235" cy="181.345" r="4.34483" transform="rotate(180 55.7235 181.345)" fill="#6C86A1"/>
<circle cx="55.7235" cy="79.9656" r="4.34483" transform="rotate(180 55.7235 79.9656)" fill="#6C86A1"/>
<circle cx="5.03408" cy="181.345" r="4.34483" transform="rotate(180 5.03408 181.345)" fill="#6C86A1"/>
<circle cx="5.03408" cy="79.9656" r="4.34483" transform="rotate(180 5.03408 79.9656)" fill="#6C86A1"/>
<circle cx="80.3446" cy="156.724" r="4.34483" transform="rotate(180 80.3446 156.724)" fill="#6C86A1"/>
<circle cx="80.3446" cy="55.3449" r="4.34483" transform="rotate(180 80.3446 55.3449)" fill="#6C86A1"/>
<circle cx="29.6552" cy="156.724" r="4.34483" transform="rotate(180 29.6552 156.724)" fill="#6C86A1"/>
<circle cx="29.6552" cy="55.3449" r="4.34483" transform="rotate(180 29.6552 55.3449)" fill="#6C86A1"/>
<circle cx="55.7235" cy="156.724" r="4.34483" transform="rotate(180 55.7235 156.724)" fill="#6C86A1"/>
<circle cx="55.7235" cy="55.3449" r="4.34483" transform="rotate(180 55.7235 55.3449)" fill="#6C86A1"/>
<circle cx="5.03408" cy="156.724" r="4.34483" transform="rotate(180 5.03408 156.724)" fill="#6C86A1"/>
<circle cx="5.03408" cy="55.3449" r="4.34483" transform="rotate(180 5.03408 55.3449)" fill="#6C86A1"/>
<circle cx="80.3446" cy="130.655" r="4.34483" transform="rotate(180 80.3446 130.655)" fill="#6C86A1"/>
<circle cx="80.3446" cy="29.2759" r="4.34483" transform="rotate(180 80.3446 29.2759)" fill="#6C86A1"/>
<circle cx="29.6552" cy="130.655" r="4.34483" transform="rotate(180 29.6552 130.655)" fill="#6C86A1"/>
<circle cx="29.6552" cy="29.2759" r="4.34483" transform="rotate(180 29.6552 29.2759)" fill="#6C86A1"/>
<circle cx="55.7235" cy="130.655" r="4.34483" transform="rotate(180 55.7235 130.655)" fill="#6C86A1"/>
<circle cx="55.7235" cy="29.2759" r="4.34483" transform="rotate(180 55.7235 29.2759)" fill="#6C86A1"/>
<circle cx="5.03408" cy="130.655" r="4.34483" transform="rotate(180 5.03408 130.655)" fill="#6C86A1"/>
<circle cx="5.03408" cy="29.2759" r="4.34483" transform="rotate(180 5.03408 29.2759)" fill="#6C86A1"/>
<circle cx="80.3446" cy="106.035" r="4.34483" transform="rotate(180 80.3446 106.035)" fill="#6C86A1"/>
<circle cx="80.3446" cy="4.65517" r="4.34483" transform="rotate(180 80.3446 4.65517)" fill="#6C86A1"/>
<circle cx="29.6552" cy="106.035" r="4.34483" transform="rotate(180 29.6552 106.035)" fill="#6C86A1"/>
<circle cx="29.6552" cy="4.65517" r="4.34483" transform="rotate(180 29.6552 4.65517)" fill="#6C86A1"/>
<circle cx="55.7235" cy="106.035" r="4.34483" transform="rotate(180 55.7235 106.035)" fill="#6C86A1"/>
<circle cx="55.7235" cy="4.65517" r="4.34483" transform="rotate(180 55.7235 4.65517)" fill="#6C86A1"/>
<circle cx="5.03408" cy="106.035" r="4.34483" transform="rotate(180 5.03408 106.035)" fill="#6C86A1"/>
<circle cx="5.03408" cy="4.65517" r="4.34483" transform="rotate(180 5.03408 4.65517)" fill="#6C86A1"/>
</svg>
