<svg width="84" height="186" viewBox="0 0 84 186" fill="none" xmlns="http://www.w3.org/2000/svg">
<circle cx="79.6552" cy="181.035" r="4.34483" transform="rotate(180 79.6552 181.035)" fill="#D07B7B"/>
<circle cx="79.6552" cy="79.6552" r="4.34483" transform="rotate(180 79.6552 79.6552)" fill="#D07B7B"/>
<circle cx="28.9657" cy="181.035" r="4.34483" transform="rotate(180 28.9657 181.035)" fill="#D07B7B"/>
<circle cx="28.9657" cy="79.6552" r="4.34483" transform="rotate(180 28.9657 79.6552)" fill="#D07B7B"/>
<circle cx="55.0346" cy="181.035" r="4.34483" transform="rotate(180 55.0346 181.035)" fill="#D07B7B"/>
<circle cx="55.0346" cy="79.6552" r="4.34483" transform="rotate(180 55.0346 79.6552)" fill="#D07B7B"/>
<circle cx="4.34462" cy="181.035" r="4.34483" transform="rotate(180 4.34462 181.035)" fill="#D07B7B"/>
<circle cx="4.34462" cy="79.6552" r="4.34483" transform="rotate(180 4.34462 79.6552)" fill="#D07B7B"/>
<circle cx="79.6552" cy="156.414" r="4.34483" transform="rotate(180 79.6552 156.414)" fill="#D07B7B"/>
<circle cx="79.6552" cy="55.0346" r="4.34483" transform="rotate(180 79.6552 55.0346)" fill="#D07B7B"/>
<circle cx="28.9657" cy="156.414" r="4.34483" transform="rotate(180 28.9657 156.414)" fill="#D07B7B"/>
<circle cx="28.9657" cy="55.0346" r="4.34483" transform="rotate(180 28.9657 55.0346)" fill="#D07B7B"/>
<circle cx="55.0346" cy="156.414" r="4.34483" transform="rotate(180 55.0346 156.414)" fill="#D07B7B"/>
<circle cx="55.0346" cy="55.0346" r="4.34483" transform="rotate(180 55.0346 55.0346)" fill="#D07B7B"/>
<circle cx="4.34462" cy="156.414" r="4.34483" transform="rotate(180 4.34462 156.414)" fill="#D07B7B"/>
<circle cx="4.34462" cy="55.0346" r="4.34483" transform="rotate(180 4.34462 55.0346)" fill="#D07B7B"/>
<circle cx="79.6552" cy="130.345" r="4.34483" transform="rotate(180 79.6552 130.345)" fill="#D07B7B"/>
<circle cx="79.6552" cy="28.9656" r="4.34483" transform="rotate(180 79.6552 28.9656)" fill="#D07B7B"/>
<circle cx="28.9657" cy="130.345" r="4.34483" transform="rotate(180 28.9657 130.345)" fill="#D07B7B"/>
<circle cx="28.9657" cy="28.9656" r="4.34483" transform="rotate(180 28.9657 28.9656)" fill="#D07B7B"/>
<circle cx="55.0346" cy="130.345" r="4.34483" transform="rotate(180 55.0346 130.345)" fill="#D07B7B"/>
<circle cx="55.0346" cy="28.9656" r="4.34483" transform="rotate(180 55.0346 28.9656)" fill="#D07B7B"/>
<circle cx="4.34462" cy="130.345" r="4.34483" transform="rotate(180 4.34462 130.345)" fill="#D07B7B"/>
<circle cx="4.34462" cy="28.9656" r="4.34483" transform="rotate(180 4.34462 28.9656)" fill="#D07B7B"/>
<circle cx="79.6552" cy="105.724" r="4.34483" transform="rotate(180 79.6552 105.724)" fill="#D07B7B"/>
<circle cx="79.6552" cy="4.34487" r="4.34483" transform="rotate(180 79.6552 4.34487)" fill="#D07B7B"/>
<circle cx="28.9657" cy="105.724" r="4.34483" transform="rotate(180 28.9657 105.724)" fill="#D07B7B"/>
<circle cx="28.9657" cy="4.34487" r="4.34483" transform="rotate(180 28.9657 4.34487)" fill="#D07B7B"/>
<circle cx="55.0346" cy="105.724" r="4.34483" transform="rotate(180 55.0346 105.724)" fill="#D07B7B"/>
<circle cx="55.0346" cy="4.34487" r="4.34483" transform="rotate(180 55.0346 4.34487)" fill="#D07B7B"/>
<circle cx="4.34462" cy="105.724" r="4.34483" transform="rotate(180 4.34462 105.724)" fill="#D07B7B"/>
<circle cx="4.34462" cy="4.34487" r="4.34483" transform="rotate(180 4.34462 4.34487)" fill="#D07B7B"/>
</svg>
