<svg width="655" height="460" viewBox="0 0 655 460" fill="none" xmlns="http://www.w3.org/2000/svg">
<path d="M4.63747 309C19.7575 300.44 83.0475 380.08 54.0975 396.46C26.7475 412 -13.7725 319.44 4.63747 309Z" fill="#FBDC8E"/>
<path d="M355.026 375.897C384.821 375.897 408.973 366.696 408.973 355.346C408.973 343.996 384.821 334.795 355.026 334.795C325.232 334.795 301.079 343.996 301.079 355.346C301.079 366.696 325.232 375.897 355.026 375.897Z" fill="black"/>
<path d="M355.121 364.254L324.765 455.534" stroke="black" stroke-width="4" stroke-miterlimit="10" stroke-linecap="round"/>
<path d="M355.12 364.254L385.476 455.534" stroke="black" stroke-width="4" stroke-miterlimit="10" stroke-linecap="round"/>
<path d="M334.731 425.562L368.573 404.715" stroke="black" stroke-width="2" stroke-miterlimit="10" stroke-linecap="round"/>
<path d="M341.531 404.715L375.381 425.562" stroke="black" stroke-width="2" stroke-miterlimit="10" stroke-linecap="round"/>
<path d="M391.9 260C391.723 263.5 391.8 275.757 390.9 281" stroke="#1F161E" stroke-miterlimit="10" stroke-linecap="round"/>
<path d="M188.63 68.96C188.63 65.464 185.796 62.63 182.3 62.63C178.804 62.63 175.97 65.464 175.97 68.96V90.81C175.97 94.306 178.804 97.14 182.3 97.14C185.796 97.14 188.63 94.306 188.63 90.81V68.96Z" fill="black"/>
<path d="M182.301 133.87C189.315 133.87 195.001 128.184 195.001 121.17C195.001 114.156 189.315 108.47 182.301 108.47C175.287 108.47 169.601 114.156 169.601 121.17C169.601 128.184 175.287 133.87 182.301 133.87Z" fill="#FBDC8E"/>
<path d="M88.0578 295C107.058 298.6 103.668 412 67.1978 405.14C32.7578 398.6 64.8778 290.59 88.0578 295Z" fill="black"/>
<path d="M81.6875 459.92H43.5075C41.9697 459.92 40.486 459.352 39.3403 458.326C38.1946 457.301 37.4673 455.888 37.2975 454.36L32.4775 411.08C32.373 410.202 32.4556 409.312 32.7199 408.469C32.9841 407.625 33.4241 406.847 34.0108 406.186C34.5974 405.524 35.3175 404.995 36.1236 404.632C36.9297 404.269 37.8035 404.081 38.6875 404.08H86.3075C87.1844 404.081 88.0514 404.266 88.8522 404.623C89.6529 404.981 90.3694 405.503 90.9551 406.156C91.5408 406.808 91.9826 407.577 92.2518 408.412C92.521 409.246 92.6115 410.128 92.5175 411L87.9075 454.28C87.7538 455.824 87.0325 457.255 85.8833 458.297C84.734 459.34 83.2388 459.918 81.6875 459.92Z" fill="#696969"/>
<path d="M98.7878 250.84C113.258 255.04 102.168 342.57 74.4578 334.51C48.2978 326.91 81.1778 245.72 98.7878 250.84Z" fill="#88D3C8"/>
<path d="M122.647 320.48C132.647 329.1 91.9674 395.04 72.7474 378.48C54.5974 362.91 110.437 310 122.647 320.48Z" fill="#FBDC8E"/>
<path d="M62.6974 259.94C84.3574 259.94 104.187 398.24 62.6974 398.24C23.5174 398.24 36.3274 259.94 62.6974 259.94Z" fill="#EBA0A0"/>
<path d="M100.707 394.72H24.507C22.2703 394.72 20.457 396.533 20.457 398.77V406.15C20.457 408.387 22.2703 410.2 24.507 410.2H100.707C102.944 410.2 104.757 408.387 104.757 406.15V398.77C104.757 396.533 102.944 394.72 100.707 394.72Z" fill="#C1B3AC"/>
<path d="M547.986 87.98H547.323V83.585L545.994 84.0733V83.4745L547.883 82.7652H547.986V87.98Z" fill="white"/>
<path d="M653.23 106.94H507.23C506.551 106.94 506 107.491 506 108.17V108.93C506 109.609 506.551 110.16 507.23 110.16H653.23C653.909 110.16 654.46 109.609 654.46 108.93V108.17C654.46 107.491 653.909 106.94 653.23 106.94Z" fill="#C1B3AC"/>
<path d="M568.901 43H560.031C558.617 43 557.471 44.1461 557.471 45.56V104.38C557.471 105.794 558.617 106.94 560.031 106.94H568.901C570.315 106.94 571.461 105.794 571.461 104.38V45.56C571.461 44.1461 570.315 43 568.901 43Z" fill="#696969"/>
<path d="M576.33 57.99H573.59C572.414 57.99 571.46 58.9436 571.46 60.12V104.81C571.46 105.986 572.414 106.94 573.59 106.94H576.33C577.506 106.94 578.46 105.986 578.46 104.81V60.12C578.46 58.9436 577.506 57.99 576.33 57.99Z" fill="#C1B3AC"/>
<path d="M583.4 57.99H580.52C579.382 57.99 578.46 58.9123 578.46 60.05V104.88C578.46 106.018 579.382 106.94 580.52 106.94H583.4C584.538 106.94 585.46 106.018 585.46 104.88V60.05C585.46 58.9123 584.538 57.99 583.4 57.99Z" fill="#696969"/>
<path d="M588.476 61.4933L586.114 62.5781C585.009 63.0851 584.525 64.3912 585.032 65.4954L603.62 105.982C604.127 107.087 605.433 107.571 606.537 107.064L608.9 105.979C610.004 105.472 610.488 104.166 609.981 103.062L591.394 62.5748C590.887 61.4705 589.581 60.9864 588.476 61.4933Z" fill="#C1B3AC"/>
<path d="M564.46 90.76C566.619 90.76 568.37 89.0094 568.37 86.85C568.37 84.6906 566.619 82.94 564.46 82.94C562.3 82.94 560.55 84.6906 560.55 86.85C560.55 89.0094 562.3 90.76 564.46 90.76Z" fill="#C1B3AC"/>
<path d="M568 93.1H560.92C560.401 93.1 559.98 93.5208 559.98 94.04C559.98 94.5591 560.401 94.98 560.92 94.98H568C568.52 94.98 568.94 94.5591 568.94 94.04C568.94 93.5208 568.52 93.1 568 93.1Z" fill="#C1B3AC"/>
<path d="M568 97.91H560.92C560.401 97.91 559.98 98.3308 559.98 98.85C559.98 99.3691 560.401 99.79 560.92 99.79H568C568.52 99.79 568.94 99.3691 568.94 98.85C568.94 98.3308 568.52 97.91 568 97.91Z" fill="#C1B3AC"/>
<path d="M575.69 65.38C575.69 64.9768 575.364 64.65 574.96 64.65C574.557 64.65 574.23 64.9768 574.23 65.38V99.54C574.23 99.9431 574.557 100.27 574.96 100.27C575.364 100.27 575.69 99.9431 575.69 99.54V65.38Z" fill="#696969"/>
<path d="M544.98 108.55H538.72C537.345 108.55 536.23 109.665 536.23 111.04C536.23 112.415 537.345 113.53 538.72 113.53H544.98C546.356 113.53 547.47 112.415 547.47 111.04C547.47 109.665 546.356 108.55 544.98 108.55Z" fill="#C1B3AC"/>
<path d="M621.74 108.55H615.48C614.105 108.55 612.99 109.665 612.99 111.04C612.99 112.415 614.105 113.53 615.48 113.53H621.74C623.115 113.53 624.23 112.415 624.23 111.04C624.23 109.665 623.115 108.55 621.74 108.55Z" fill="#C1B3AC"/>
<path d="M182.3 82.88C177.271 82.8787 172.291 83.8681 167.644 85.7918C162.997 87.7154 158.775 90.5357 155.218 94.0913C151.662 97.647 148.84 101.869 146.916 106.515C144.991 111.161 144 116.141 144 121.17H220.6C220.6 116.141 219.609 111.161 217.684 106.515C215.76 101.869 212.938 97.647 209.382 94.0913C205.825 90.5357 201.603 87.7154 196.956 85.7918C192.309 83.8681 187.329 82.8787 182.3 82.88V82.88Z" fill="#88D3C8"/>
<path d="M182.3 69.92V1" stroke="black" stroke-width="2" stroke-linecap="round" stroke-linejoin="round"/>
<path d="M406.9 292.823L403.034 271.238C402.514 249.217 397.382 200.014 390.093 192.697C388.38 190.986 354.493 188 348.448 188C312.371 188 301.67 192.127 298.952 194.859C290.526 203.31 287.9 242.464 287.9 256.175C287.9 269.886 306.373 307 306.373 307H349.763C349.763 307 380.27 295.753 388.857 296.26C389.047 293.619 406.9 292.823 406.9 292.823Z" fill="#EBA0A0"/>
<path d="M410.047 257C405.496 257 401.741 258.091 391.438 260.131L390.9 280C400.673 276.032 402.941 270.516 405.775 270.516C412.853 270.516 416.552 274.195 420.734 274.195C423.651 274.195 428.9 271.888 428.9 268.75C428.9 262.178 415.687 257 410.047 257Z" fill="#F8CDBA"/>
<path d="M382.9 219C384.445 221.992 391.9 250.855 391.9 260" stroke="#1F161E" stroke-miterlimit="10" stroke-linecap="round"/>
<path d="M287.9 254C287.9 286.556 288.203 296 301.212 296C331.196 296 376.524 271.277 384.604 271.277C391.741 271.277 395.468 274.979 399.68 274.979C402.612 274.979 407.9 272.655 407.9 269.512C407.9 262.907 394.589 257.708 388.914 257.708C376.137 257.708 325.149 270.084 323.904 270.084C322.659 270.084 320.564 269.54 320.564 267.435C320.564 263.614 323.053 254.784 323.377 254.014L287.9 254Z" fill="#F8CDBA"/>
<path d="M325.9 226C324.68 228.427 324 250.944 322.9 254" stroke="#1F161E" stroke-miterlimit="10" stroke-linecap="round"/>
<path d="M644.847 454.46C645.463 456.802 647.86 458.202 650.202 457.586C652.544 456.97 653.943 454.573 653.328 452.231L609.486 285.472C608.87 283.13 606.473 281.731 604.131 282.347C601.789 282.962 600.39 285.36 601.006 287.702L644.847 454.46Z" fill="#696969"/>
<path d="M600.57 287.709C601.185 285.367 599.786 282.97 597.444 282.354C595.102 281.738 592.705 283.137 592.089 285.479L548.248 452.238C547.632 454.58 549.031 456.977 551.373 457.593C553.715 458.209 556.112 456.809 556.728 454.468L600.57 287.709Z" fill="#696969"/>
<path d="M583.589 451.382C584.194 453.731 586.589 455.144 588.938 454.539C591.286 453.934 592.7 451.539 592.094 449.19L548.988 281.937C548.383 279.589 545.988 278.175 543.639 278.781C541.29 279.386 539.877 281.781 540.482 284.13L583.589 451.382Z" fill="#C1B3AC"/>
<path d="M293.097 287.712C293.713 285.37 292.313 282.973 289.972 282.357C287.63 281.741 285.232 283.141 284.617 285.483L240.775 452.241C240.159 454.583 241.559 456.981 243.9 457.596C246.242 458.212 248.64 456.813 249.255 454.471L293.097 287.712Z" fill="#696969"/>
<path d="M230.437 287.715C231.053 285.373 229.653 282.975 227.311 282.36C224.97 281.744 222.572 283.143 221.957 285.485L178.115 452.244C177.499 454.586 178.898 456.983 181.24 457.599C183.582 458.214 185.98 456.815 186.595 454.473L230.437 287.715Z" fill="#C1B3AC"/>
<path d="M273.968 454.471C274.584 456.813 276.981 458.212 279.323 457.597C281.665 456.981 283.064 454.584 282.449 452.242L238.607 285.483C237.991 283.141 235.594 281.742 233.252 282.358C230.91 282.973 229.511 285.371 230.127 287.713L273.968 454.471Z" fill="#C1B3AC"/>
<path d="M479.72 275H414.9L426.644 234.377C426.937 233.396 427.538 232.538 428.356 231.93C429.174 231.321 430.166 230.995 431.184 231.001H486.187C486.91 230.989 487.625 231.147 488.276 231.463C488.927 231.778 489.495 232.242 489.936 232.818C490.377 233.394 490.678 234.065 490.816 234.779C490.953 235.492 490.923 236.228 490.727 236.928L479.72 275Z" fill="#696969"/>
<path d="M455.4 257C457.886 257 459.9 255.209 459.9 253C459.9 250.791 457.886 249 455.4 249C452.915 249 450.9 250.791 450.9 253C450.9 255.209 452.915 257 455.4 257Z" fill="white"/>
<path d="M422.9 272H376.9V275H422.9V272Z" fill="#696969"/>
<path d="M337.9 196.344C337.9 198.552 361.9 198.552 361.9 196.344V174H337.9V196.344Z" fill="#F8CDBA"/>
<path d="M351.9 182.003C350.003 182.003 337.9 187.782 337.9 191V174C340.917 174 351.9 182.003 351.9 182.003Z" fill="#1F161E"/>
<path d="M355.4 184C341.869 184 330.9 173.255 330.9 160C330.9 146.745 341.869 136 355.4 136C368.931 136 379.9 146.745 379.9 160C379.9 173.255 368.931 184 355.4 184Z" fill="#F8CDBA"/>
<path d="M363.839 125C376.193 125 383.9 132.663 383.9 142.484C383.9 150.651 381.889 155.271 379.532 156.441C378.041 148.512 374.798 144.842 372.113 143.264C370.035 144.842 366.456 148.664 361.683 149.843C356.911 151.022 344.489 150.793 334.453 158C331.181 155.053 327.9 151.221 327.9 146.705C327.9 142.189 329.921 136.523 341.814 133.252C349.656 131.094 350.743 125 363.839 125Z" fill="#1F161E"/>
<path d="M377.9 167C375.691 167 373.9 166.328 373.9 165.5C373.9 164.672 375.691 164 377.9 164C380.11 164 381.9 164.672 381.9 165.5C381.9 166.328 380.11 167 377.9 167Z" fill="#FA9E9F"/>
<path d="M351.4 167C348.915 167 346.9 166.328 346.9 165.5C346.9 164.672 348.915 164 351.4 164C353.886 164 355.9 164.672 355.9 165.5C355.9 166.328 353.886 167 351.4 167Z" fill="#FA9E9F"/>
<path d="M367.9 161C368.854 162.016 373.716 166.28 368.587 168" stroke="#1F161E" stroke-miterlimit="10" stroke-linecap="round"/>
<path d="M359.9 174C358.715 174 356.869 171.891 355.9 170" stroke="#1F161E" stroke-miterlimit="10" stroke-linecap="round"/>
<path d="M333.4 168C330.363 168 327.9 165.761 327.9 163C327.9 160.239 330.363 158 333.4 158C336.438 158 338.9 160.239 338.9 163C338.9 165.761 336.438 168 333.4 168Z" fill="#F8CDBA"/>
<path d="M496.668 343.783C496.852 347.329 497.625 427.986 499.081 429.485C500.536 430.985 517.265 435.862 518.978 433.839C519.67 430.395 526.451 374.993 527.926 370.137" fill="#1F161E"/>
<path d="M306.656 305.116C300.167 300.931 308.693 356.873 346.444 361.216C384.195 365.558 452.448 328.223 462.736 329.406C485.448 332.019 534.082 382.799 538.298 383.284C541.897 380.428 549.002 375.522 549.257 373.303C549.512 371.084 507.783 280.429 469.267 275.999C454.334 274.267 321.306 314.576 306.656 305.116Z" fill="#6C86A1"/>
<path d="M327.769 308.701C335.513 307.858 345.414 304.507 354.248 300.928C330.784 305.714 311.701 308.375 306.656 305.116C303.217 302.903 303.459 321.143 310.037 339.443C308.872 335.911 309.532 310.684 327.769 308.701Z" fill="#1F161E"/>
<path d="M539.063 381.709C539.418 382.42 544.362 390.177 546.391 390.495C548.419 390.813 561.759 383.848 561.424 381.983C561.088 380.119 553.191 380.395 551.927 379.615C550.664 378.836 548.036 375.517 547.716 374.134" fill="#1F161E"/>
<path d="M502.598 430.637C502.363 431.392 500.53 440.408 501.773 442.045C503.015 443.682 517.447 447.936 518.495 446.358C519.544 444.78 513.646 439.499 513.31 438.065C512.975 436.63 513.352 432.431 514.101 431.192" fill="#1F161E"/>
<path d="M540.074 287.708C540.689 285.366 539.29 282.968 536.948 282.353C534.606 281.737 532.209 283.136 531.593 285.478L487.752 452.237C487.136 454.579 488.535 456.976 490.877 457.592C493.219 458.208 495.616 456.808 496.232 454.466L540.074 287.708Z" fill="#C1B3AC"/>
<path d="M336.629 454.471C337.245 456.813 339.643 458.212 341.984 457.597C344.326 456.981 345.726 454.583 345.11 452.242L301.268 285.483C300.653 283.141 298.255 281.742 295.913 282.357C293.571 282.973 292.172 285.371 292.788 287.712L336.629 454.471Z" fill="#696969"/>
<path d="M628.019 274H203.781C201.638 274 199.9 276.008 199.9 278.485V284.515C199.9 286.992 201.638 289 203.781 289H628.019C630.163 289 631.9 286.992 631.9 284.515V278.485C631.9 276.008 630.163 274 628.019 274Z" fill="#C1B3AC"/>
</svg>
