<svg width="655" height="437" viewBox="0 0 655 437" fill="none" xmlns="http://www.w3.org/2000/svg">
<path d="M4.63747 286C19.7575 277.44 83.0475 357.08 54.0975 373.46C26.7475 389 -13.7725 296.44 4.63747 286Z" fill="#FBDC8E"/>
<path d="M355.026 352.897C384.821 352.897 408.973 343.696 408.973 332.346C408.973 320.996 384.821 311.795 355.026 311.795C325.232 311.795 301.079 320.996 301.079 332.346C301.079 343.696 325.232 352.897 355.026 352.897Z" fill="black"/>
<path d="M355.121 341.254L324.765 432.534" stroke="black" stroke-width="4" stroke-miterlimit="10" stroke-linecap="round"/>
<path d="M355.12 341.254L385.476 432.534" stroke="black" stroke-width="4" stroke-miterlimit="10" stroke-linecap="round"/>
<path d="M334.732 402.562L368.573 381.715" stroke="black" stroke-width="2" stroke-miterlimit="10" stroke-linecap="round"/>
<path d="M341.531 381.715L375.381 402.562" stroke="black" stroke-width="2" stroke-miterlimit="10" stroke-linecap="round"/>
<path d="M391.9 237C391.723 240.5 391.8 252.757 390.9 258" stroke="#1F161E" stroke-miterlimit="10" stroke-linecap="round"/>
<path d="M88.0578 272C107.058 275.6 103.668 389 67.1978 382.14C32.7578 375.6 64.8778 267.59 88.0578 272Z" fill="black"/>
<path d="M81.6875 436.92H43.5075C41.9697 436.92 40.486 436.352 39.3403 435.326C38.1946 434.301 37.4673 432.888 37.2975 431.36L32.4775 388.08C32.373 387.202 32.4556 386.312 32.7199 385.469C32.9841 384.625 33.4241 383.847 34.0108 383.186C34.5974 382.524 35.3175 381.995 36.1236 381.632C36.9297 381.269 37.8035 381.081 38.6875 381.08H86.3075C87.1844 381.081 88.0514 381.266 88.8522 381.623C89.6529 381.981 90.3694 382.503 90.9551 383.156C91.5408 383.808 91.9826 384.577 92.2518 385.412C92.521 386.246 92.6115 387.128 92.5175 388L87.9075 431.28C87.7538 432.824 87.0325 434.255 85.8833 435.297C84.734 436.34 83.2388 436.918 81.6875 436.92Z" fill="#696969"/>
<path d="M98.7878 227.84C113.258 232.04 102.168 319.57 74.4578 311.51C48.2978 303.91 81.1778 222.72 98.7878 227.84Z" fill="#88D3C8"/>
<path d="M122.647 297.48C132.647 306.1 91.9674 372.04 72.7474 355.48C54.5974 339.91 110.437 287 122.647 297.48Z" fill="#FBDC8E"/>
<path d="M62.6974 236.94C84.3574 236.94 104.187 375.24 62.6974 375.24C23.5174 375.24 36.3274 236.94 62.6974 236.94Z" fill="#D07B7B"/>
<path d="M100.707 371.72H24.507C22.2703 371.72 20.457 373.533 20.457 375.77V383.15C20.457 385.387 22.2703 387.2 24.507 387.2H100.707C102.944 387.2 104.757 385.387 104.757 383.15V375.77C104.757 373.533 102.944 371.72 100.707 371.72Z" fill="#C1B3AC"/>
<path d="M653.23 63.9401H507.23C506.551 63.9401 506 64.4907 506 65.1701V65.9301C506 66.6094 506.551 67.1601 507.23 67.1601H653.23C653.909 67.1601 654.46 66.6094 654.46 65.9301V65.1701C654.46 64.4907 653.909 63.9401 653.23 63.9401Z" fill="#C1B3AC"/>
<path d="M568.901 0H560.031C558.617 0 557.471 1.14615 557.471 2.56V61.38C557.471 62.7939 558.617 63.94 560.031 63.94H568.901C570.315 63.94 571.461 62.7939 571.461 61.38V2.56C571.461 1.14615 570.315 0 568.901 0Z" fill="#696969"/>
<path d="M576.33 14.99H573.59C572.414 14.99 571.46 15.9436 571.46 17.12V61.81C571.46 62.9863 572.414 63.94 573.59 63.94H576.33C577.506 63.94 578.46 62.9863 578.46 61.81V17.12C578.46 15.9436 577.506 14.99 576.33 14.99Z" fill="#C1B3AC"/>
<path d="M583.4 14.99H580.52C579.382 14.99 578.46 15.9123 578.46 17.05V61.88C578.46 63.0177 579.382 63.94 580.52 63.94H583.4C584.538 63.94 585.46 63.0177 585.46 61.88V17.05C585.46 15.9123 584.538 14.99 583.4 14.99Z" fill="#696969"/>
<path d="M588.476 18.4933L586.114 19.5781C585.009 20.0851 584.525 21.3912 585.032 22.4954L603.62 62.9824C604.127 64.0866 605.433 64.5708 606.537 64.0639L608.9 62.9791C610.004 62.4721 610.488 61.166 609.981 60.0618L591.394 19.5748C590.887 18.4705 589.581 17.9864 588.476 18.4933Z" fill="#C1B3AC"/>
<path d="M564.46 47.76C566.619 47.76 568.37 46.0094 568.37 43.85C568.37 41.6906 566.619 39.94 564.46 39.94C562.3 39.94 560.55 41.6906 560.55 43.85C560.55 46.0094 562.3 47.76 564.46 47.76Z" fill="#C1B3AC"/>
<path d="M568 50.1H560.92C560.401 50.1 559.98 50.5208 559.98 51.04C559.98 51.5591 560.401 51.98 560.92 51.98H568C568.52 51.98 568.94 51.5591 568.94 51.04C568.94 50.5208 568.52 50.1 568 50.1Z" fill="#C1B3AC"/>
<path d="M568 54.91H560.92C560.401 54.91 559.98 55.3308 559.98 55.85C559.98 56.3691 560.401 56.79 560.92 56.79H568C568.52 56.79 568.94 56.3691 568.94 55.85C568.94 55.3308 568.52 54.91 568 54.91Z" fill="#C1B3AC"/>
<path d="M575.69 22.38C575.69 21.9768 575.364 21.65 574.96 21.65C574.557 21.65 574.23 21.9768 574.23 22.38V56.54C574.23 56.9431 574.557 57.27 574.96 57.27C575.364 57.27 575.69 56.9431 575.69 56.54V22.38Z" fill="#696969"/>
<path d="M544.98 65.55H538.72C537.345 65.55 536.23 66.6648 536.23 68.04C536.23 69.4152 537.345 70.53 538.72 70.53H544.98C546.356 70.53 547.47 69.4152 547.47 68.04C547.47 66.6648 546.356 65.55 544.98 65.55Z" fill="#C1B3AC"/>
<path d="M621.74 65.55H615.48C614.105 65.55 612.99 66.6648 612.99 68.04C612.99 69.4152 614.105 70.53 615.48 70.53H621.74C623.115 70.53 624.23 69.4152 624.23 68.04C624.23 66.6648 623.115 65.55 621.74 65.55Z" fill="#C1B3AC"/>
<path d="M406.9 269.823L403.034 248.238C402.514 226.217 397.382 177.014 390.093 169.697C388.38 167.986 354.493 165 348.448 165C312.371 165 301.67 169.127 298.952 171.859C290.526 180.31 287.9 219.464 287.9 233.175C287.9 246.886 306.373 284 306.373 284H349.763C349.763 284 380.27 272.753 388.857 273.26C389.047 270.619 406.9 269.823 406.9 269.823Z" fill="#D07B7B"/>
<path d="M410.047 234C405.496 234 401.741 235.091 391.438 237.131L390.9 257C400.673 253.032 402.941 247.516 405.775 247.516C412.853 247.516 416.552 251.195 420.734 251.195C423.651 251.195 428.9 248.888 428.9 245.75C428.9 239.178 415.687 234 410.047 234Z" fill="#F8CDBA"/>
<path d="M382.9 196C384.445 198.992 391.9 227.855 391.9 237" stroke="#1F161E" stroke-miterlimit="10" stroke-linecap="round"/>
<path d="M287.9 231C287.9 263.556 288.203 273 301.212 273C331.196 273 376.524 248.277 384.604 248.277C391.741 248.277 395.468 251.979 399.68 251.979C402.612 251.979 407.9 249.655 407.9 246.512C407.9 239.907 394.589 234.708 388.914 234.708C376.137 234.708 325.149 247.084 323.904 247.084C322.659 247.084 320.564 246.54 320.564 244.435C320.564 240.613 323.053 231.784 323.377 231.014L287.9 231Z" fill="#F8CDBA"/>
<path d="M325.9 203C324.68 205.427 324 227.944 322.9 231" stroke="#1F161E" stroke-miterlimit="10" stroke-linecap="round"/>
<path d="M644.847 431.46C645.463 433.802 647.86 435.201 650.202 434.586C652.544 433.97 653.943 431.573 653.328 429.231L609.486 262.472C608.87 260.13 606.473 258.731 604.131 259.347C601.789 259.962 600.39 262.36 601.006 264.702L644.847 431.46Z" fill="#696969"/>
<path d="M600.57 264.709C601.185 262.367 599.786 259.97 597.444 259.354C595.102 258.738 592.705 260.137 592.089 262.479L548.248 429.238C547.632 431.58 549.031 433.977 551.373 434.593C553.715 435.209 556.112 433.809 556.728 431.468L600.57 264.709Z" fill="#696969"/>
<path d="M583.589 428.382C584.194 430.731 586.589 432.144 588.938 431.539C591.286 430.934 592.7 428.539 592.094 426.19L548.988 258.937C548.383 256.589 545.988 255.175 543.639 255.781C541.29 256.386 539.877 258.781 540.482 261.13L583.589 428.382Z" fill="#C1B3AC"/>
<path d="M293.097 264.712C293.713 262.37 292.313 259.973 289.972 259.357C287.63 258.741 285.232 260.141 284.617 262.483L240.775 429.241C240.159 431.583 241.559 433.981 243.9 434.596C246.242 435.212 248.64 433.813 249.255 431.471L293.097 264.712Z" fill="#696969"/>
<path d="M230.437 264.715C231.053 262.373 229.653 259.975 227.311 259.36C224.97 258.744 222.572 260.143 221.957 262.485L178.115 429.244C177.499 431.586 178.898 433.983 181.24 434.599C183.582 435.214 185.98 433.815 186.595 431.473L230.437 264.715Z" fill="#C1B3AC"/>
<path d="M273.968 431.471C274.584 433.813 276.981 435.212 279.323 434.597C281.665 433.981 283.064 431.584 282.449 429.242L238.607 262.483C237.991 260.141 235.594 258.742 233.252 259.358C230.91 259.973 229.511 262.371 230.127 264.713L273.968 431.471Z" fill="#C1B3AC"/>
<path d="M422.9 249H376.9V252H422.9V249Z" fill="#696969"/>
<path d="M337.9 173.344C337.9 175.552 361.9 175.552 361.9 173.344V151H337.9V173.344Z" fill="#F8CDBA"/>
<path d="M351.9 159.003C350.003 159.003 337.9 164.782 337.9 168V151C340.917 151 351.9 159.003 351.9 159.003Z" fill="#1F161E"/>
<path d="M355.4 161C341.869 161 330.9 150.255 330.9 137C330.9 123.745 341.869 113 355.4 113C368.931 113 379.9 123.745 379.9 137C379.9 150.255 368.931 161 355.4 161Z" fill="#F8CDBA"/>
<path d="M363.839 102C376.193 102 383.9 109.663 383.9 119.484C383.9 127.651 381.889 132.271 379.532 133.441C378.041 125.512 374.798 121.842 372.113 120.264C370.035 121.842 366.456 125.664 361.683 126.843C356.911 128.022 344.489 127.793 334.453 135C331.181 132.053 327.9 128.221 327.9 123.705C327.9 119.189 329.921 113.523 341.814 110.252C349.656 108.094 350.743 102 363.839 102Z" fill="#1F161E"/>
<path d="M481.23 351.535C481.714 352.503 488.455 363.082 491.222 363.516C493.988 363.949 512.179 354.451 511.721 351.909C511.264 349.367 500.495 349.743 498.772 348.68C497.049 347.616 493.465 343.091 493.029 341.205" fill="#1F161E"/>
<path d="M414 297C414.083 301.429 421.102 390.292 422.519 392.125C423.936 393.959 440.579 399.577 442.356 396.997C443.15 392.669 453.38 312.116 455 306" fill="#1F161E"/>
<path d="M306.281 282.073C301.37 278.069 306.509 333.622 335.601 336.969C364.693 340.315 418.465 301.314 426.394 302.226C443.896 304.239 480.197 353.601 483.446 353.975C486.304 351.033 496.745 339.188 497 336.969C497.255 334.75 462.518 252.223 432.837 248.809C421.329 247.471 317.369 291.123 306.281 282.073Z" fill="#6C86A1"/>
<path d="M326.75 284.238C334.382 282.678 343.928 278.42 352.391 274.034C329.474 280.983 310.722 285.408 305.395 282.633C301.765 280.749 303.703 298.888 311.956 316.496C310.467 313.088 308.777 287.909 326.75 284.238Z" fill="#1F161E"/>
<path d="M423.874 392.153C423.535 393.244 420.887 406.265 422.681 408.63C424.476 410.995 445.32 417.139 446.835 414.859C448.349 412.58 439.83 404.953 439.346 402.881C438.861 400.81 439.406 394.744 440.487 392.955" fill="#1F161E"/>
<path d="M479.72 252H414.9L426.644 211.376C426.937 210.396 427.538 209.538 428.356 208.929C429.174 208.321 430.166 207.995 431.184 208.001H486.187C486.91 207.989 487.625 208.147 488.276 208.463C488.927 208.778 489.495 209.242 489.936 209.818C490.377 210.394 490.678 211.065 490.816 211.779C490.953 212.492 490.923 213.228 490.727 213.928L479.72 252Z" fill="#696969"/>
<path d="M455.4 234C457.886 234 459.9 232.209 459.9 230C459.9 227.791 457.886 226 455.4 226C452.915 226 450.9 227.791 450.9 230C450.9 232.209 452.915 234 455.4 234Z" fill="white"/>
<path d="M377.9 144C375.691 144 373.9 143.328 373.9 142.5C373.9 141.672 375.691 141 377.9 141C380.11 141 381.9 141.672 381.9 142.5C381.9 143.328 380.11 144 377.9 144Z" fill="#FA9E9F"/>
<path d="M351.4 144C348.915 144 346.9 143.328 346.9 142.5C346.9 141.672 348.915 141 351.4 141C353.886 141 355.9 141.672 355.9 142.5C355.9 143.328 353.886 144 351.4 144Z" fill="#FA9E9F"/>
<path d="M367.9 138C368.854 139.016 373.716 143.28 368.587 145" stroke="#1F161E" stroke-miterlimit="10" stroke-linecap="round"/>
<path d="M359.9 151C358.715 151 356.869 148.891 355.9 147" stroke="#1F161E" stroke-miterlimit="10" stroke-linecap="round"/>
<path d="M333.4 145C330.363 145 327.9 142.761 327.9 140C327.9 137.239 330.363 135 333.4 135C336.438 135 338.9 137.239 338.9 140C338.9 142.761 336.438 145 333.4 145Z" fill="#F8CDBA"/>
<path d="M540.074 264.708C540.689 262.366 539.29 259.968 536.948 259.353C534.606 258.737 532.209 260.136 531.593 262.478L487.752 429.237C487.136 431.579 488.535 433.976 490.877 434.592C493.219 435.208 495.616 433.808 496.232 431.466L540.074 264.708Z" fill="#C1B3AC"/>
<path d="M336.629 431.471C337.245 433.813 339.643 435.212 341.984 434.597C344.326 433.981 345.726 431.583 345.11 429.242L301.268 262.483C300.653 260.141 298.255 258.742 295.913 259.357C293.571 259.973 292.172 262.371 292.788 264.712L336.629 431.471Z" fill="#696969"/>
<path d="M628.019 251H203.781C201.638 251 199.9 253.008 199.9 255.485V261.515C199.9 263.992 201.638 266 203.781 266H628.019C630.163 266 631.9 263.992 631.9 261.515V255.485C631.9 253.008 630.163 251 628.019 251Z" fill="#C1B3AC"/>
</svg>
