<svg width="77" height="134" viewBox="0 0 77 134" fill="none" xmlns="http://www.w3.org/2000/svg">
<path d="M44.6297 68.96C44.6297 65.464 41.7957 62.63 38.2997 62.63C34.8038 62.63 31.9697 65.464 31.9697 68.96V90.81C31.9697 94.306 34.8038 97.14 38.2997 97.14C41.7957 97.14 44.6297 94.306 44.6297 90.81V68.96Z" fill="black"/>
<path d="M38.3006 133.87C45.3146 133.87 51.0006 128.184 51.0006 121.17C51.0006 114.156 45.3146 108.47 38.3006 108.47C31.2866 108.47 25.6006 114.156 25.6006 121.17C25.6006 128.184 31.2866 133.87 38.3006 133.87Z" fill="#FBDC8E"/>
<path d="M38.3 82.88C33.2708 82.8787 28.2907 83.8681 23.644 85.7918C18.9973 87.7154 14.775 90.5357 11.2184 94.0913C7.6618 97.647 4.84048 101.869 2.9156 106.515C0.990726 111.161 -1.71512e-07 116.141 0 121.17H76.6C76.6 116.141 75.6093 111.161 73.6844 106.515C71.7595 101.869 68.9382 97.647 65.3816 94.0913C61.825 90.5357 57.6027 87.7154 52.956 85.7918C48.3093 83.8681 43.3291 82.8787 38.3 82.88V82.88Z" fill="#88D3C8"/>
<path d="M38.2998 69.92V1" stroke="black" stroke-width="2" stroke-linecap="round" stroke-linejoin="round"/>
</svg>
