<svg width="681" height="525" viewBox="0 0 681 525" fill="none" xmlns="http://www.w3.org/2000/svg">
<path d="M4.63747 374C19.7575 365.44 83.0475 445.08 54.0975 461.46C26.7475 477 -13.7725 384.44 4.63747 374Z" fill="#FBDC8E"/>
<path d="M331 427C365.794 427 394 416.255 394 403C394 389.745 365.794 379 331 379C296.206 379 268 389.745 268 403C268 416.255 296.206 427 331 427Z" fill="black"/>
<path d="M331.11 413.403L295.66 520" stroke="black" stroke-width="4" stroke-miterlimit="10" stroke-linecap="round"/>
<path d="M331.109 413.403L366.559 520" stroke="black" stroke-width="4" stroke-miterlimit="10" stroke-linecap="round"/>
<path d="M307.3 484.999L346.82 460.653" stroke="black" stroke-width="2" stroke-miterlimit="10" stroke-linecap="round"/>
<path d="M315.24 460.653L354.77 484.999" stroke="black" stroke-width="2" stroke-miterlimit="10" stroke-linecap="round"/>
<path d="M539.293 359.7C540.133 364.7 554.393 479.01 556.703 480.9C559.013 482.79 583.543 486.98 585.643 483.83C586.063 478.83 586.643 399.12 587.943 391.99" fill="#1F161E"/>
<path d="M263.393 335.85C253.503 330.97 274.73 408.95 329 408.95C383.27 408.95 474.013 344.84 488.803 344.84C521.453 344.84 598.743 408.95 604.803 408.95C609.443 404.31 618.723 396.19 618.723 393C618.723 389.81 544.723 268 489.353 268C467.883 267.98 285.723 346.88 263.393 335.85Z" fill="#6C86A1"/>
<path d="M293.933 337.49C304.783 335.03 318.283 328.66 330.233 322.14C297.723 332.76 271.083 339.65 263.393 335.85C258.153 333.27 261.473 359.11 273.793 384C271.563 379.18 268.383 343.28 293.933 337.49Z" fill="#1F161E"/>
<path d="M605.633 406.59C606.253 407.54 614.533 417.74 617.463 417.86C620.393 417.98 638.183 405.92 637.403 403.33C636.623 400.74 625.463 402.42 623.543 401.52C621.623 400.62 617.353 396.34 616.673 394.43" fill="#1F161E"/>
<path d="M561.883 481.96C561.673 483.07 560.543 496.16 562.573 498.28C564.603 500.4 585.773 504.08 587.003 501.67C588.233 499.26 579.003 492.73 578.293 490.75C577.583 488.77 577.433 482.75 578.293 480.87" fill="#1F161E"/>
<path d="M394.147 286.86C393.987 291.78 394.057 309.01 393.247 316.38" stroke="#1F161E" stroke-miterlimit="10" stroke-linecap="round"/>
<path d="M191.117 68.96C191.117 65.464 188.283 62.63 184.787 62.63C181.291 62.63 178.457 65.464 178.457 68.96V90.81C178.457 94.306 181.291 97.14 184.787 97.14C188.283 97.14 191.117 94.306 191.117 90.81V68.96Z" fill="black"/>
<path d="M184.788 133.87C191.802 133.87 197.488 128.184 197.488 121.17C197.488 114.156 191.802 108.47 184.788 108.47C177.774 108.47 172.088 114.156 172.088 121.17C172.088 128.184 177.774 133.87 184.788 133.87Z" fill="#FBDC8E"/>
<path d="M88.0578 360C107.058 363.6 103.668 477 67.1978 470.14C32.7578 463.6 64.8778 355.59 88.0578 360Z" fill="black"/>
<path d="M81.6875 524.92H43.5075C41.9697 524.92 40.486 524.352 39.3403 523.326C38.1946 522.301 37.4673 520.888 37.2975 519.36L32.4775 476.08C32.373 475.202 32.4556 474.312 32.7199 473.469C32.9841 472.625 33.4241 471.847 34.0108 471.186C34.5974 470.524 35.3175 469.995 36.1236 469.632C36.9297 469.269 37.8035 469.081 38.6875 469.08H86.3075C87.1844 469.081 88.0514 469.266 88.8522 469.623C89.6529 469.981 90.3694 470.503 90.9551 471.156C91.5408 471.808 91.9826 472.577 92.2518 473.412C92.521 474.246 92.6115 475.128 92.5175 476L87.9075 519.28C87.7538 520.824 87.0325 522.255 85.8833 523.297C84.734 524.34 83.2388 524.918 81.6875 524.92Z" fill="#696969"/>
<path d="M98.7878 315.84C113.258 320.04 102.168 407.57 74.4578 399.51C48.2978 391.91 81.1778 310.72 98.7878 315.84Z" fill="#88D3C8"/>
<path d="M122.647 385.48C132.647 394.1 91.9674 460.04 72.7474 443.48C54.5974 427.91 110.437 375 122.647 385.48Z" fill="#FBDC8E"/>
<path d="M62.6974 324.94C84.3574 324.94 104.187 463.24 62.6974 463.24C23.5174 463.24 36.3274 324.94 62.6974 324.94Z" fill="#EBA0A0"/>
<path d="M100.707 459.72H24.507C22.2703 459.72 20.457 461.533 20.457 463.77V471.15C20.457 473.387 22.2703 475.2 24.507 475.2H100.707C102.944 475.2 104.757 473.387 104.757 471.15V463.77C104.757 461.533 102.944 459.72 100.707 459.72Z" fill="#C1B3AC"/>
<path d="M547.986 131.98H547.323V127.585L545.994 128.073V127.475L547.883 126.765H547.986V131.98Z" fill="white"/>
<path d="M653.23 150.94H507.23C506.551 150.94 506 151.491 506 152.17V152.93C506 153.609 506.551 154.16 507.23 154.16H653.23C653.909 154.16 654.46 153.609 654.46 152.93V152.17C654.46 151.491 653.909 150.94 653.23 150.94Z" fill="#C1B3AC"/>
<path d="M568.901 87H560.031C558.617 87 557.471 88.1461 557.471 89.56V148.38C557.471 149.794 558.617 150.94 560.031 150.94H568.901C570.315 150.94 571.461 149.794 571.461 148.38V89.56C571.461 88.1461 570.315 87 568.901 87Z" fill="#696969"/>
<path d="M576.33 101.99H573.59C572.414 101.99 571.46 102.944 571.46 104.12V148.81C571.46 149.986 572.414 150.94 573.59 150.94H576.33C577.506 150.94 578.46 149.986 578.46 148.81V104.12C578.46 102.944 577.506 101.99 576.33 101.99Z" fill="#C1B3AC"/>
<path d="M583.4 101.99H580.52C579.382 101.99 578.46 102.912 578.46 104.05V148.88C578.46 150.018 579.382 150.94 580.52 150.94H583.4C584.538 150.94 585.46 150.018 585.46 148.88V104.05C585.46 102.912 584.538 101.99 583.4 101.99Z" fill="#696969"/>
<path d="M588.476 105.493L586.114 106.578C585.009 107.085 584.525 108.391 585.032 109.495L603.62 149.982C604.127 151.087 605.433 151.571 606.537 151.064L608.9 149.979C610.004 149.472 610.488 148.166 609.981 147.062L591.394 106.575C590.887 105.471 589.581 104.986 588.476 105.493Z" fill="#C1B3AC"/>
<path d="M564.46 134.76C566.619 134.76 568.37 133.009 568.37 130.85C568.37 128.691 566.619 126.94 564.46 126.94C562.3 126.94 560.55 128.691 560.55 130.85C560.55 133.009 562.3 134.76 564.46 134.76Z" fill="#C1B3AC"/>
<path d="M568 137.1H560.92C560.401 137.1 559.98 137.521 559.98 138.04C559.98 138.559 560.401 138.98 560.92 138.98H568C568.52 138.98 568.94 138.559 568.94 138.04C568.94 137.521 568.52 137.1 568 137.1Z" fill="#C1B3AC"/>
<path d="M568 141.91H560.92C560.401 141.91 559.98 142.331 559.98 142.85C559.98 143.369 560.401 143.79 560.92 143.79H568C568.52 143.79 568.94 143.369 568.94 142.85C568.94 142.331 568.52 141.91 568 141.91Z" fill="#C1B3AC"/>
<path d="M575.69 109.38C575.69 108.977 575.364 108.65 574.96 108.65C574.557 108.65 574.23 108.977 574.23 109.38V143.54C574.23 143.943 574.557 144.27 574.96 144.27C575.364 144.27 575.69 143.943 575.69 143.54V109.38Z" fill="#696969"/>
<path d="M544.98 152.55H538.72C537.345 152.55 536.23 153.665 536.23 155.04C536.23 156.415 537.345 157.53 538.72 157.53H544.98C546.356 157.53 547.47 156.415 547.47 155.04C547.47 153.665 546.356 152.55 544.98 152.55Z" fill="#C1B3AC"/>
<path d="M621.74 152.55H615.48C614.105 152.55 612.99 153.665 612.99 155.04C612.99 156.415 614.105 157.53 615.48 157.53H621.74C623.115 157.53 624.23 156.415 624.23 155.04C624.23 153.665 623.115 152.55 621.74 152.55Z" fill="#C1B3AC"/>
<path d="M184.787 82.88C179.758 82.8787 174.778 83.8681 170.131 85.7918C165.485 87.7154 161.262 90.5357 157.706 94.0913C154.149 97.647 151.328 101.869 149.403 106.515C147.478 111.161 146.487 116.141 146.487 121.17H223.087C223.087 116.141 222.097 111.161 220.172 106.515C218.247 101.869 215.425 97.647 211.869 94.0913C208.312 90.5357 204.09 87.7154 199.443 85.7918C194.797 83.8681 189.816 82.8787 184.787 82.88V82.88Z" fill="#88D3C8"/>
<path d="M184.787 69.92V1" stroke="black" stroke-width="2" stroke-linecap="round" stroke-linejoin="round"/>
<path d="M394.147 309.25L411.287 303.1C410.547 271.83 403.237 201.96 392.857 191.57C390.417 189.14 342.157 184.9 333.547 184.9C282.167 184.9 266.927 190.76 263.057 194.64C251.057 206.64 247.317 262.24 247.317 281.71C247.317 301.18 302.317 311.28 302.317 311.28L366.787 315.71C366.787 315.71 380.927 317.17 393.157 317.89C393.427 314.14 394.147 309.25 394.147 309.25Z" fill="#EBA0A0"/>
<path d="M420.808 282.41C414.288 282.41 408.908 283.96 394.148 286.86L393.378 315.1C407.378 309.46 410.628 301.62 414.688 301.62C424.828 301.62 430.128 306.85 436.118 306.85C440.298 306.85 447.818 303.57 447.818 299.11C447.818 289.77 428.888 282.41 420.808 282.41Z" fill="#F8CDBA"/>
<path d="M382.497 228.62C384.497 232.87 394.147 273.87 394.147 286.86" stroke="#1F161E" stroke-miterlimit="10" stroke-linecap="round"/>
<path d="M247.317 278.41C247.317 324.5 247.747 337.87 266.247 337.87C308.887 337.87 373.347 302.87 384.837 302.87C394.987 302.87 400.287 308.11 406.277 308.11C410.447 308.11 417.967 304.82 417.967 300.37C417.967 291.02 399.037 283.66 390.967 283.66C372.797 283.66 300.287 301.18 298.517 301.18C296.747 301.18 293.767 300.41 293.767 297.43C293.767 292.02 297.307 279.52 297.767 278.43L247.317 278.41Z" fill="#F8CDBA"/>
<path d="M300.5 238C299.28 241.51 298.6 274.08 297.5 278.5" stroke="#1F161E" stroke-miterlimit="10" stroke-linecap="round"/>
<path d="M669.456 518.747C670.175 521.481 672.975 523.116 675.709 522.397C678.444 521.678 680.078 518.878 679.359 516.143L628.161 321.401C627.442 318.666 624.642 317.032 621.907 317.751C619.172 318.47 617.538 321.27 618.257 324.004L669.456 518.747Z" fill="#696969"/>
<path d="M617.748 324.013C618.467 321.278 616.833 318.478 614.098 317.759C611.363 317.04 608.564 318.674 607.845 321.409L556.646 516.151C555.927 518.886 557.561 521.686 560.296 522.405C563.031 523.124 565.83 521.49 566.549 518.755L617.748 324.013Z" fill="#696969"/>
<path d="M547.1 324.011C547.819 321.277 546.185 318.477 543.45 317.758C540.715 317.039 537.915 318.673 537.196 321.408L485.998 516.15C485.279 518.885 486.913 521.685 489.647 522.404C492.382 523.123 495.182 521.489 495.901 518.754L547.1 324.011Z" fill="#C1B3AC"/>
<path d="M597.917 515.152C598.624 517.895 601.421 519.546 604.163 518.839C606.906 518.132 608.557 515.335 607.85 512.592L557.51 317.273C556.803 314.53 554.006 312.88 551.263 313.587C548.521 314.294 546.87 317.09 547.577 319.833L597.917 515.152Z" fill="#C1B3AC"/>
<path d="M258.679 324.017C259.398 321.282 257.764 318.482 255.029 317.763C252.294 317.044 249.494 318.678 248.775 321.413L197.577 516.155C196.858 518.89 198.492 521.69 201.227 522.409C203.961 523.128 206.761 521.494 207.48 518.759L258.679 324.017Z" fill="#696969"/>
<path d="M309.516 518.759C310.235 521.494 313.035 523.128 315.77 522.409C318.505 521.69 320.139 518.89 319.42 516.156L268.221 321.413C267.502 318.679 264.702 317.044 261.968 317.763C259.233 318.482 257.599 321.282 258.318 324.017L309.516 518.759Z" fill="#696969"/>
<path d="M649.267 308.14H154.097C151.596 308.14 149.567 310.168 149.567 312.67V318.76C149.567 321.262 151.596 323.29 154.097 323.29H649.267C651.769 323.29 653.797 321.262 653.797 318.76V312.67C653.797 310.168 651.769 308.14 649.267 308.14Z" fill="#C1B3AC"/>
<path d="M185.504 324.02C186.223 321.285 184.589 318.485 181.854 317.766C179.119 317.047 176.319 318.681 175.601 321.416L124.402 516.158C123.683 518.893 125.317 521.693 128.052 522.412C130.786 523.131 133.586 521.497 134.305 518.762L185.504 324.02Z" fill="#C1B3AC"/>
<path d="M236.341 518.76C237.06 521.494 239.859 523.128 242.594 522.409C245.329 521.691 246.963 518.891 246.244 516.156L195.045 321.414C194.326 318.679 191.527 317.045 188.792 317.764C186.057 318.483 184.423 321.283 185.142 324.017L236.341 518.76Z" fill="#C1B3AC"/>
<path d="M520.278 308.14H427.768L444.528 250.5C444.946 249.109 445.804 247.891 446.971 247.028C448.139 246.165 449.555 245.702 451.008 245.71H529.508C530.539 245.693 531.559 245.918 532.488 246.366C533.417 246.813 534.229 247.472 534.858 248.289C535.488 249.105 535.918 250.058 536.114 251.071C536.31 252.083 536.267 253.127 535.988 254.12L520.278 308.14Z" fill="#696969"/>
<path d="M485.378 282.58C488.504 282.58 491.038 280.046 491.038 276.92C491.038 273.794 488.504 271.26 485.378 271.26C482.252 271.26 479.718 273.794 479.718 276.92C479.718 280.046 482.252 282.58 485.378 282.58Z" fill="white"/>
<path d="M438.758 304.09H373.848V308.14H438.758V304.09Z" fill="#696969"/>
<path d="M318 195.655C318 198.782 353 198.782 353 195.655V164H318V195.655Z" fill="#F8CDBA"/>
<path d="M338 175.298C335.29 175.298 318 183.458 318 188V164C322.309 164 338 175.298 338 175.298Z" fill="#1F161E"/>
<path d="M343 179C323.67 179 308 163.554 308 144.5C308 125.446 323.67 110 343 110C362.33 110 378 125.446 378 144.5C378 163.554 362.33 179 343 179Z" fill="#F8CDBA"/>
<path d="M354.982 94C372.852 94 384 105.146 384 119.431C384 131.31 381.091 138.031 377.681 139.732C375.524 128.199 370.834 122.861 366.951 120.565C363.945 122.861 358.768 128.42 351.864 130.135C344.961 131.85 326.994 131.518 312.478 142C307.746 137.713 303 132.14 303 125.571C303 119.003 305.923 110.761 323.125 106.003C334.468 102.864 336.04 94 354.982 94Z" fill="#1F161E"/>
<path d="M375 154C371.686 154 369 152.881 369 151.5C369 150.119 371.686 149 375 149C378.314 149 381 150.119 381 151.5C381 152.881 378.314 154 375 154Z" fill="#FA9E9F"/>
<path d="M337.5 154C334.462 154 332 152.881 332 151.5C332 150.119 334.462 149 337.5 149C340.538 149 343 150.119 343 151.5C343 152.881 340.538 154 337.5 154Z" fill="#FA9E9F"/>
<path d="M361 145C361.954 146.597 366.816 153.298 361.686 156" stroke="#1F161E" stroke-miterlimit="10" stroke-linecap="round"/>
<path d="M349 164C347.222 164 344.452 161.363 343 159" stroke="#1F161E" stroke-miterlimit="10" stroke-linecap="round"/>
<path d="M311 156C306.582 156 303 152.418 303 148C303 143.582 306.582 140 311 140C315.418 140 319 143.582 319 148C319 152.418 315.418 156 311 156Z" fill="#F8CDBA"/>
</svg>
